<?xml version="1.0" encoding="UTF-8"?>
<svg id="Layer_2" data-name="Layer 2" xmlns="http://www.w3.org/2000/svg" xmlns:xlink="http://www.w3.org/1999/xlink" viewBox="0 0 892 640.65">
  <defs>
    <style>
      .cls-1, .cls-2, .cls-3, .cls-4, .cls-5 {
        stroke-width: 0px;
      }

      .cls-1, .cls-6 {
        fill: url(#linear-gradient);
      }

      .cls-2 {
        fill: url(#linear-gradient-2);
      }

      .cls-7 {
        fill: #fff;
        stroke: #010101;
        stroke-miterlimit: 10;
      }

      .cls-3 {
        fill: url(#linear-gradient-3);
      }

      .cls-4 {
        fill: #595a5c;
      }

      .cls-8 {
        clip-path: url(#clippath);
      }

      .cls-5 {
        fill: url(#linear-gradient-4);
      }
    </style>
    <linearGradient id="linear-gradient" x1="0" y1="320.33" x2="892" y2="320.33" gradientUnits="userSpaceOnUse">
      <stop offset="0" stop-color="#ba141a"/>
      <stop offset="1" stop-color="#790000"/>
    </linearGradient>
    <clipPath id="clippath">
      <path class="cls-1" d="M91.64,6.44C24.07,29.74,0,100.53,0,159v481.65h24.89V159c0-49.89,19.67-109.98,74.86-129.03C181.15,1.9,229.05,102.11,258.01,179.94l.08.2c2.73,6.95,5.41,13.93,8.09,20.89,8.67,22.5,17.64,45.78,28.06,68.21,1.04,2.25,2.12,4.61,3.22,7.06,10.7,23.62,25.36,56,53.5,66.27,33.68,12.31,60.79-22.48,75.47-41.32,22.15-28.41,42.04-54.92,60.79-81.06l.22-.31c20.25-30.12,70.53-88.58,96.7-77.13l2.26.99h.68c2.61,1.29,12.41,7.04,34.69,29.55,12.25,12.39,25.23,18.46,38.89,18,27.25-.9,50.05-27.18,76.45-57.62,3.06-3.52,6.16-7.1,9.33-10.71l.26-.31c.12-.13,11.48-13.83,29.25-23.63,22.27-12.28,43.66-12.34,63.56-.14,2.26,1.61,25.18,18.64,27.58,45.43v496.34h24.89V143.79l-.04-1c-3.2-40.04-37.14-63.62-38.58-64.61l-.47-.3c-53.14-32.89-105.09,4.35-125.28,28.8-3.16,3.6-6.26,7.17-9.29,10.67-21.65,24.95-42.09,48.52-58.48,49.05-6.42.21-13.09-3.27-20.39-10.63-28.92-29.25-41.41-35.25-47.01-36.53-51.79-20.02-117.59,74.74-125.56,86.58-18.53,25.81-38.19,52.02-60.2,80.26-10.68,13.69-30.55,39.17-47.19,33.1-18.32-6.7-29.99-32.47-39.36-53.17-1.14-2.52-2.25-4.96-3.33-7.28-10.07-21.67-18.88-44.56-27.39-66.68-2.7-6.98-5.39-13.97-8.12-20.92-13.91-37.35-33.53-84.75-62.2-120.27C191.77,17.02,161.25,0,128.02,0c-11.79,0-23.93,2.15-36.38,6.44"/>
    </clipPath>
    <linearGradient id="linear-gradient-2" x1="-2129.15" y1="-137.61" x2="-2126.58" y2="-137.61" gradientTransform="translate(739691.82 47873.13) scale(347.41)" xlink:href="#linear-gradient"/>
    <linearGradient id="linear-gradient-3" x1="-2129.15" y1="-137.49" x2="-2126.58" y2="-137.49" gradientTransform="translate(739691.82 47873.13) scale(347.41)" xlink:href="#linear-gradient"/>
    <linearGradient id="linear-gradient-4" x1="-2129.15" y1="-136.87" x2="-2126.58" y2="-136.87" gradientTransform="translate(739691.82 47873.13) scale(347.41)" xlink:href="#linear-gradient"/>
  </defs>
  <g id="Layer_1-2" data-name="Layer 1">
    <g>
      <path class="cls-7" d="M872.76,111.72c-7.42-8.53-14.2-17.61-21.91-25.89-3.7-3.97-7.61-7.87-11.96-11.12-1.62-1.21-4.74-3.76-7.67-5.33-1.88,2.26-4.79,3.65-7.95,3.98-20.65,2.15-41.09,6.88-61.22,11.84-1.69.42-3.39.81-5.1,1.19-8.58,4.45-16.23,9.86-23.53,15.83-.33,2.8-1.91,5.24-4.19,6.95-.37.33-.76.65-1.18.94-1.14.79-2.77,4.52-3.65,5.82-2.21,3.28-4.59,6.46-7.11,9.51-4.42,5.35-9.78,10.58-15.94,13.88-.5.27-1.02.52-1.54.76-1.2,3.96-2.16,7.98-4.16,11.71-3.08,5.76-8.3,9.15-14.12,11.68-7.56,3.29-15.68,7.07-24.15,6.79-8.87-.29-16.46-5.37-22.99-10.97-3.29-2.81-5.79-6.49-9.23-9.12-3.04-2.33-6.61-4.03-10-5.77-7.12-3.65-14.65-7.02-21.2-11.66-2.64-1.87-4.81-4.39-7.43-6.23-2.7-1.9-6.32-1-9.49-1.39-4.21-.52-7.49-2.22-9.26-6.23-.05-.11-.08-.22-.13-.33-3.02.91-6.04,1.87-9.05,2.87-1.39.46-2.8.86-4.2,1.24-3.79,4.37-7.5,8.8-11.1,13.32-2.93,3.68-8.28,3.69-12.18,1.52-4.84,6.29-10.34,12.75-17.01,16.65-4.93,8.3-9.9,16.59-14.59,25.03-4.97,8.94-9.14,18.27-15.01,26.68-5.73,8.22-11.94,16.1-17.66,24.33-2.45,3.52-5.08,7.24-6.3,11.39-1.21,4.15-1.84,8.17-3.86,12.07-2.05,3.95-7.28,5.8-11.44,4.66-4.53-1.25-7.02-5.23-7.43-9.7-1.02,2.76-2.24,5.43-3.95,7.86-3.74,5.3-8.85,9.07-13.38,13.62-4.41,4.43-8.73,9.25-11.88,14.67-3.21,5.53-5.2,11.46-9.38,16.43-4.23,5.02-9.98,8.09-15.66,11.14.28,4.89.06,9.88-2.29,13.52-1.5,2.32-3.74,3.79-6.16,4.43-1.77.62-3.78.76-5.92.23-5.06-1.26-9.93-3.03-14.68-5.2-1.82-.83-3.06-1.47-4.74-2.05-.66-.23-1.33-.4-2-.59-5.15,1.65-10.92-2.16-12.28-7.12-1.2-4.36.63-8.21,3.85-10.66-.79-.45-1.57-.9-2.36-1.35-5.26-3.01-10.4-6.12-15.32-9.52-.78-.22-1.53-.54-2.18-.97-2.03-1.34-3.73-2.97-5.36-4.65-2.99-2.42-5.88-4.99-8.62-7.8-4.82-4.93-2.63-12.47,1.98-15.89-1.08-2.83-2-5.73-2.75-8.69-1.72-6.72-2.75-13.6-3.72-20.46-.29-2.06-.74-4.16-1.1-6.27-1.06-1.2-2.11-2.41-3.14-3.64-2.03-2.4-3.08-5.39-2.85-8.28-1.46-1.29-2.62-2.99-3.38-4.92-4.64-11.79-5.2-24.47-10.96-35.97-5.54-11.07-12.94-20.81-22.23-29-4.12-3.63-3.69-10.64,0-14.33.22-.22.44-.41.67-.61-4.75-5.38-9.74-10.55-15.16-15.32-4.12-3.63-3.68-10.64,0-14.33,1.24-1.24,2.68-2.05,4.19-2.49-8.2-9.56-16.88-18.67-26.77-26.64-4.28-3.45-3.55-10.78,0-14.33.21-.21.43-.41.66-.59-2.08-2.91-3.96-6.01-5.99-9.1-2.79-2.01-5.43-4.2-7.69-6.84-1.26-1.47-2.13-3.04-2.97-4.66-1.2-1.17-2.4-2.35-3.6-3.53-5-4.91-10.29-9.54-15.31-14.43-2.66-1.14-5.37-2.17-8.14-3.04-1.64-.51-2.2-1.97-2-3.29-.68-.62-1.33-1.27-1.94-1.96-1.76-.17-3.51-.45-5.25-.77-1.61-.29-2.94-.46-4.26-1.27-.31-.11-.6-.27-.86-.47-.13-.01-.26-.02-.38-.06-1.06-.27-2.12-.53-3.2-.75-1.12-.23-1.83-1.19-2.05-2.24-1.87-.18-3.74-.41-5.62-.79-.06-.01-.12-.04-.18-.05-2.82.92-5.84.98-9.01-.2-2.08-.77-3.59-1.83-5.91-1.93-1.88-.08-3.68.37-5.51.68-3.18.54-5.97.84-9.05-.36-.71-.27-1.23-.72-1.58-1.24-6.02,1.92-12.19,3.28-18.35,4.74-3.93.93-7.76,2.09-11.65,3.13-1.37.37-2.87.9-4.34.98-9.34,5.41-19.29,9.69-28.7,15.01-5.42,4.74-11.22,9.37-16.53,14.41.96,1.04,1.27,2.67-.03,3.96-.9.89-1.89,1.67-2.93,2.35.25.86.06,1.81-.85,2.6-2.81,2.45-5.76,5.18-8.49,8.1.3.01.6.05.93.12,2.38.53,4.16,2.65,3.23,5.13-.73,1.93-2.79,3.33-4.69,3.87-1.43.41-2.97.7-4.52.91-.05.11-.1.23-.16.34-2.18,3.8-4.2,7.68-6.26,11.55,0,.04,0,.08,0,.13-.17,1.73-.41,3.44-.66,5.16-.23,1.59-.28,3.25-.77,4.78-.38,1.18-1.25,1.79-2.2,1.97-.12.4-.26.79-.4,1.19,0,1.41-.05,2.88-.25,4.31,3.79.12,7.58.36,11.36.55.74.04.75,1.2,0,1.16-3.86-.19-7.71-.44-11.58-.56-.13.58-.28,1.14-.48,1.68.28.24.57.48.86.7.25.19.2.62,0,.82-.24.24-.57.19-.82,0-.18-.14-.35-.29-.52-.43-.04.07-.06.15-.1.22-.69,1.26-1.84,1.61-2.91,1.38-.18,1.34-.46,2.69-1.29,3.72-.06.07-.14.12-.23.14,0,.07,0,.14,0,.21.02,1.82.13,3.7-.46,5.46-.04.11-.11.18-.18.25v526.56h875.08V114.5c-3.18.49-6.69-.38-8.78-2.78Z"/>
      <g>
        <g>
          <path class="cls-6" d="M91.64,6.44C24.07,29.74,0,100.53,0,159v481.65h24.89V159c0-49.89,19.67-109.98,74.86-129.03C181.15,1.9,229.05,102.11,258.01,179.94l.08.2c2.73,6.95,5.41,13.93,8.09,20.89,8.67,22.5,17.64,45.78,28.06,68.21,1.04,2.25,2.12,4.61,3.22,7.06,10.7,23.62,25.36,56,53.5,66.27,33.68,12.31,60.79-22.48,75.47-41.32,22.15-28.41,42.04-54.92,60.79-81.06l.22-.31c20.25-30.12,70.53-88.58,96.7-77.13l2.26.99h.68c2.61,1.29,12.41,7.04,34.69,29.55,12.25,12.39,25.23,18.46,38.89,18,27.25-.9,50.05-27.18,76.45-57.62,3.06-3.52,6.16-7.1,9.33-10.71l.26-.31c.12-.13,11.48-13.83,29.25-23.63,22.27-12.28,43.66-12.34,63.56-.14,2.26,1.61,25.18,18.64,27.58,45.43v496.34h24.89V143.79l-.04-1c-3.2-40.04-37.14-63.62-38.58-64.61l-.47-.3c-53.14-32.89-105.09,4.35-125.28,28.8-3.16,3.6-6.26,7.17-9.29,10.67-21.65,24.95-42.09,48.52-58.48,49.05-6.42.21-13.09-3.27-20.39-10.63-28.92-29.25-41.41-35.25-47.01-36.53-51.79-20.02-117.59,74.74-125.56,86.58-18.53,25.81-38.19,52.02-60.2,80.26-10.68,13.69-30.55,39.17-47.19,33.1-18.32-6.7-29.99-32.47-39.36-53.17-1.14-2.52-2.25-4.96-3.33-7.28-10.07-21.67-18.88-44.56-27.39-66.68-2.7-6.98-5.39-13.97-8.12-20.92-13.91-37.35-33.53-84.75-62.2-120.27C191.77,17.02,161.25,0,128.02,0c-11.79,0-23.93,2.15-36.38,6.44"/>
          <g class="cls-8">
            <path class="cls-2" d="M0,58.03v12.94c1.47-3.44,3.16-6.74,4.9-9.76-1.88-.42-3.66-1.57-4.9-3.19Z"/>
            <path class="cls-3" d="M5.4,103.28c-.02.38-.03.76-.03,1.13,0,1.33.2,2.59.48,3.88.04.2.08.4.11.59,0-.57,0-1.14-.02-1.7-.02-1.49.08-2.97.35-4.44-.25.23-.55.41-.9.53Z"/>
            <path class="cls-5" d="M889.72,102.09c.76,4.38-.68,8.87-4.69,11.21-3.68,2.15-9.36,1.77-12.28-1.58-7.42-8.53-14.2-17.61-21.91-25.89-3.7-3.97-7.61-7.87-11.96-11.12-1.62-1.21-4.74-3.76-7.67-5.33-1.88,2.26-4.79,3.65-7.95,3.98-20.65,2.15-41.09,6.88-61.22,11.84-1.69.42-3.39.81-5.1,1.19-8.58,4.45-16.23,9.86-23.53,15.83-.33,2.8-1.91,5.24-4.19,6.95-.37.33-.76.65-1.18.94-1.14.79-2.77,4.52-3.65,5.82-2.21,3.28-4.59,6.46-7.11,9.51-4.42,5.35-9.78,10.58-15.94,13.88-.5.27-1.02.52-1.54.76-1.2,3.96-2.16,7.98-4.16,11.71-3.08,5.76-8.3,9.15-14.12,11.68-7.56,3.29-15.68,7.07-24.15,6.79-8.87-.29-16.46-5.37-22.99-10.97-3.29-2.81-5.79-6.49-9.23-9.12-3.04-2.33-6.61-4.03-10-5.77-7.12-3.65-14.65-7.02-21.2-11.66-2.64-1.87-4.81-4.39-7.43-6.23-2.7-1.9-6.32-1-9.49-1.39-4.21-.52-7.49-2.22-9.26-6.23-.05-.11-.08-.22-.13-.33-3.02.91-6.04,1.87-9.05,2.87-1.39.46-2.8.86-4.2,1.24-3.79,4.37-7.5,8.8-11.1,13.32-2.93,3.68-8.28,3.69-12.18,1.52-4.84,6.29-10.34,12.75-17.01,16.65-4.93,8.3-9.9,16.59-14.59,25.03-4.97,8.94-9.14,18.27-15.01,26.68-5.73,8.22-11.94,16.1-17.66,24.33-2.45,3.52-5.08,7.24-6.3,11.39-1.21,4.15-1.84,8.17-3.86,12.07-2.05,3.95-7.28,5.8-11.44,4.66-4.53-1.25-7.02-5.23-7.43-9.7-1.02,2.76-2.24,5.43-3.95,7.86-3.74,5.3-8.85,9.07-13.38,13.62-4.41,4.43-8.73,9.25-11.88,14.67-3.21,5.53-5.2,11.46-9.38,16.43-4.23,5.02-9.98,8.09-15.66,11.14.28,4.89.06,9.88-2.29,13.52-1.5,2.32-3.74,3.79-6.16,4.43-1.77.62-3.78.76-5.92.23-5.06-1.26-9.93-3.03-14.68-5.2-1.82-.83-3.06-1.47-4.74-2.05-.66-.23-1.33-.4-2-.59-5.15,1.65-10.92-2.16-12.28-7.12-1.2-4.36.63-8.21,3.85-10.66-.79-.45-1.57-.9-2.36-1.35-5.26-3.01-10.4-6.12-15.32-9.52-.78-.22-1.53-.54-2.18-.97-2.03-1.34-3.73-2.97-5.36-4.65-2.99-2.42-5.88-4.99-8.62-7.8-4.82-4.93-2.63-12.47,1.98-15.89-1.08-2.83-2-5.73-2.75-8.69-1.72-6.72-2.75-13.6-3.72-20.46-.29-2.06-.74-4.16-1.1-6.27-1.06-1.2-2.11-2.41-3.14-3.64-2.03-2.4-3.08-5.39-2.85-8.28-1.46-1.29-2.62-2.99-3.38-4.92-4.64-11.79-5.2-24.47-10.96-35.97-5.54-11.07-12.94-20.81-22.23-29-4.12-3.63-3.69-10.64,0-14.33.22-.22.44-.41.67-.61-4.75-5.38-9.74-10.55-15.16-15.32-4.12-3.63-3.68-10.64,0-14.33,1.24-1.24,2.68-2.05,4.19-2.49-8.2-9.56-16.88-18.67-26.77-26.64-4.28-3.45-3.55-10.78,0-14.33.21-.21.43-.41.66-.59-2.08-2.91-3.96-6.01-5.99-9.1-2.79-2.01-5.43-4.2-7.69-6.84-1.26-1.47-2.13-3.04-2.97-4.66-1.2-1.17-2.4-2.35-3.6-3.53-5-4.91-10.29-9.54-15.31-14.43-2.66-1.14-5.37-2.17-8.14-3.04-1.64-.51-2.2-1.97-2-3.29-.68-.62-1.33-1.27-1.94-1.96-1.76-.17-3.51-.45-5.25-.77-1.61-.29-2.94-.46-4.26-1.27-.31-.11-.6-.27-.86-.47-.13-.01-.26-.02-.38-.06-1.06-.27-2.12-.53-3.2-.75-1.12-.23-1.83-1.19-2.05-2.24-1.87-.18-3.74-.41-5.62-.79-.06-.01-.12-.04-.18-.05-2.82.92-5.84.98-9.01-.2-2.08-.77-3.59-1.83-5.91-1.93-1.88-.08-3.68.37-5.51.68-3.18.54-5.97.84-9.05-.36-.71-.27-1.23-.72-1.58-1.24-6.02,1.92-12.19,3.28-18.35,4.74-3.93.93-7.76,2.09-11.65,3.13-1.37.37-2.87.9-4.34.98-9.34,5.41-19.29,9.69-28.7,15.01-5.42,4.74-11.22,9.37-16.53,14.41.96,1.04,1.27,2.67-.03,3.96-.9.89-1.89,1.67-2.93,2.35.25.86.06,1.81-.85,2.6-2.81,2.45-5.76,5.18-8.49,8.1.3.01.6.05.93.12,2.38.53,4.16,2.65,3.23,5.13-.73,1.93-2.79,3.33-4.69,3.87-1.43.41-2.97.7-4.52.91-.05.11-.1.23-.16.34-2.18,3.8-4.2,7.68-6.26,11.55,0,.04,0,.08,0,.13-.17,1.73-.41,3.44-.66,5.16-.23,1.59-.28,3.25-.77,4.78-.38,1.18-1.25,1.79-2.2,1.97-.12.4-.26.79-.4,1.19,0,1.41-.05,2.88-.25,4.31,3.79.12,7.58.36,11.36.55.74.04.75,1.2,0,1.16-3.86-.19-7.71-.44-11.58-.56-.13.58-.28,1.14-.48,1.68.28.24.57.48.86.7.25.19.2.62,0,.82-.24.24-.57.19-.82,0-.18-.14-.35-.29-.52-.43-.04.07-.06.15-.1.22-.69,1.26-1.84,1.61-2.91,1.38-.18,1.34-.46,2.69-1.29,3.72-.06.07-.14.12-.23.14,0,.07,0,.14,0,.21.02,1.82.13,3.7-.46,5.46-.19.56-.93.55-1.12,0-.46-1.32-.58-2.81-.88-4.18-.29-1.33-.46-2.65-.44-4.02,0-.26.01-.53.02-.8-.07-.01-.14,0-.2-.02-.09.13-.24.23-.45.23-.44,0-.61-.39-.54-.72-.61-.48-1.03-1.22-.99-1.99.07-1.26.35-2.44.73-3.63-.94.06-1.89-.03-2.78-.28v543.66h892V102.86c-.77-.23-1.52-.5-2.28-.77Z"/>
          </g>
        </g>
        <g>
          <path class="cls-4" d="M218.95,568.4h-27.59l-12.61-24.63-30.15-59.12-30.15,59.12-12.61,24.63h-27.59l12.61-24.63,57.74-113.32,57.74,113.32,12.61,24.63Z"/>
          <g>
            <path class="cls-4" d="M325.97,468.68v-.79c0-6.9-5.71-12.61-12.61-12.61h-55.97c-6.9,0-12.61,5.72-12.61,12.61v.79c0,6.89,5.72,12.61,12.61,12.61h49.66c12.81,0,24.24,5.52,32.12,14.19.59.59.99,1.18,1.58,1.78,6.11,7.49,9.85,17.14,9.85,27.59,0,24.04-19.51,43.55-43.55,43.55h-43.16c-24.04,0-43.55-19.51-43.55-43.55h24.63c0,10.44,8.48,18.92,18.92,18.92h43.16c10.44,0,19.12-8.47,19.12-18.92s-8.67-18.92-19.12-18.92h-49.66c-10.05,0-19.12-3.95-25.82-10.45-1.77-1.78-3.35-3.74-4.73-5.91-4.14-5.91-6.5-13.21-6.5-21.09v-.79c0-20.5,16.55-37.25,37.05-37.25h55.97c20.5,0,37.25,16.75,37.25,37.25v.79l-24.63.2Z"/>
            <path class="cls-4" d="M508.28,430.45v137.96h-24.63v-63.26h-88.69v63.26h-24.63v-137.96h24.63v50.06h88.69v-50.06h24.63Z"/>
            <path class="cls-4" d="M661.02,499.43c0,38.04-30.94,68.98-68.97,68.98s-68.98-30.94-68.98-68.98,30.94-68.98,68.98-68.98,68.97,30.95,68.97,68.98ZM636.38,499.43c0-24.44-19.9-44.34-44.34-44.34s-44.34,19.9-44.34,44.34,19.91,44.34,44.34,44.34,44.34-19.9,44.34-44.34Z"/>
            <path class="cls-4" d="M753.46,485.83l59.71,82.57h-30.35l-47.69-65.82-34.88,31.73v34.1h-24.63v-137.96h24.63v70.55l20.3-18.53,18.33-16.75,38.43-35.28h36.46l-60.3,55.38Z"/>
          </g>
        </g>
        <g>
          <path class="cls-4" d="M81.71,596.36h7.78l12.65,19.66,12.65-19.66h7.78v41.58h-7.31v-29.82l-13.13,19.6h-.24l-13.01-19.49v29.7h-7.19v-41.58Z"/>
          <path class="cls-4" d="M192.99,596.36h7.31v41.58h-7.31v-41.58Z"/>
          <path class="cls-4" d="M270.79,596.36h6.77l22.27,28.75v-28.75h7.19v41.58h-6.12l-22.93-29.58v29.58h-7.19v-41.58Z"/>
          <path class="cls-4" d="M377.02,596.36h30.83v6.53h-23.52v10.81h20.85v6.53h-20.85v11.16h23.82v6.54h-31.12v-41.58Z"/>
          <path class="cls-4" d="M476.19,596.36h18.53c5.23,0,9.33,1.54,12,4.16,2.2,2.26,3.44,5.35,3.44,8.97v.12c0,6.83-4.1,10.93-9.92,12.59l11.23,15.74h-8.61l-10.22-14.49h-9.15v14.49h-7.3v-41.58ZM494.19,616.97c5.23,0,8.55-2.73,8.55-6.95v-.12c0-4.45-3.21-6.89-8.61-6.89h-10.63v13.96h10.69Z"/>
          <path class="cls-4" d="M593.24,596.06h6.77l18.3,41.88h-7.72l-4.22-10.04h-19.66l-4.28,10.04h-7.48l18.29-41.88ZM603.7,621.43l-7.19-16.63-7.13,16.63h14.31Z"/>
          <path class="cls-4" d="M684.75,596.36h7.3v34.92h21.86v6.65h-29.16v-41.58Z"/>
          <path class="cls-4" d="M778.1,631.88l4.39-5.23c3.98,3.45,7.96,5.41,13.13,5.41,4.52,0,7.37-2.08,7.37-5.23v-.12c0-2.97-1.66-4.57-9.39-6.35-8.85-2.14-13.84-4.75-13.84-12.41v-.12c0-7.12,5.94-12.05,14.2-12.05,6.06,0,10.87,1.84,15.09,5.22l-3.92,5.53c-3.74-2.79-7.48-4.28-11.29-4.28-4.28,0-6.77,2.2-6.77,4.93v.12c0,3.21,1.9,4.63,9.86,6.53,8.79,2.14,13.37,5.29,13.37,12.18v.12c0,7.78-6.12,12.42-14.85,12.42-6.35,0-12.36-2.2-17.34-6.65Z"/>
        </g>
      </g>
    </g>
  </g>
</svg>