<?xml version="1.0" encoding="UTF-8"?>
<svg id="Layer_2" data-name="Layer 2" xmlns="http://www.w3.org/2000/svg" xmlns:xlink="http://www.w3.org/1999/xlink" viewBox="0 0 892 669.48">
  <defs>
    <style>
      .cls-1, .cls-2, .cls-3, .cls-4, .cls-5 {
        stroke-width: 0px;
      }

      .cls-1, .cls-6 {
        fill: url(#linear-gradient);
      }

      .cls-2 {
        fill: url(#linear-gradient-2);
      }

      .cls-7 {
        <!-- lat param alpha -->
        fill: rgba(255, 255, 255, 0.8); 
        stroke: #010101;
        stroke-miterlimit: 10;
      }

      .cls-3 {
        fill: url(#linear-gradient-3);
      }

      .cls-4 {
        fill: #595a5c;
      }

      .cls-8 {
        clip-path: url(#clippath);
      }

      .cls-5 {
        fill: url(#linear-gradient-4);
      }
    </style>
    <linearGradient id="linear-gradient" x1="0" y1="334.74" x2="892" y2="334.74" gradientUnits="userSpaceOnUse">
      <stop offset="0" stop-color="#ba141a"/>
      <stop offset="1" stop-color="#790000"/>
    </linearGradient>
    <clipPath id="clippath">
      <path class="cls-1" d="M91.64,6.73C24.07,31.08,0,105.05,0,166.16v503.33h24.89V166.16c0-52.13,19.67-114.93,74.86-134.83C181.15,1.99,229.05,106.71,258.01,188.03l.08.21c2.73,7.27,5.41,14.55,8.09,21.83,8.67,23.51,17.64,47.84,28.06,71.28,1.04,2.35,2.12,4.82,3.22,7.38,10.7,24.69,25.36,58.52,53.5,69.25,33.68,12.86,60.79-23.49,75.47-43.18,22.15-29.69,42.04-57.39,60.79-84.71l.22-.33c20.25-31.47,70.53-92.57,96.7-80.61l2.26,1.04h.68c2.61,1.35,12.41,7.35,34.69,30.88,12.25,12.94,25.23,19.3,38.89,18.81,27.25-.94,50.05-28.41,76.45-60.21,3.06-3.68,6.16-7.42,9.33-11.19l.26-.33c.12-.14,11.48-14.45,29.25-24.69,22.27-12.84,43.66-12.9,63.56-.15,2.26,1.68,25.18,19.48,27.58,47.48v518.68h24.89V150.26l-.04-1.04c-3.2-41.84-37.14-66.48-38.58-67.52l-.47-.31c-53.14-34.38-105.09,4.55-125.28,30.09-3.16,3.77-6.26,7.49-9.29,11.15-21.65,26.07-42.09,50.7-58.48,51.26-6.42.22-13.09-3.42-20.39-11.11-28.92-30.56-41.41-36.84-47.01-38.17-51.79-20.92-117.59,78.1-125.56,90.48-18.53,26.97-38.19,54.36-60.2,83.87-10.68,14.31-30.55,40.94-47.19,34.59-18.32-7-29.99-33.93-39.36-55.56-1.14-2.64-2.25-5.18-3.33-7.61-10.07-22.65-18.88-46.56-27.39-69.68-2.7-7.29-5.39-14.59-8.12-21.86-13.91-39.03-33.53-88.56-62.2-125.68C191.77,17.79,161.25,0,128.02,0c-11.79,0-23.93,2.24-36.38,6.73"/>
    </clipPath>
    <linearGradient id="linear-gradient-2" x1="-2129.15" y1="-137.61" x2="-2126.58" y2="-137.61" gradientTransform="translate(739691.82 47873.13) scale(347.41)" xlink:href="#linear-gradient"/>
    <linearGradient id="linear-gradient-3" x1="-2129.15" y1="-137.48" x2="-2126.58" y2="-137.48" gradientTransform="translate(739691.82 47873.13) scale(347.41)" xlink:href="#linear-gradient"/>
    <linearGradient id="linear-gradient-4" x1="-2129.15" y1="-136.83" x2="-2126.58" y2="-136.83" gradientTransform="translate(739691.82 47873.13) scale(347.41)" xlink:href="#linear-gradient"/>
  </defs>
  <g id="Layer_1-2" data-name="Layer 1">
    <g>
      <path class="cls-7" d="M872.76,126.67c-7.42-8.76-14.2-18.09-21.91-26.59-3.7-4.07-7.61-8.08-11.96-11.42-1.62-1.24-4.74-3.87-7.67-5.48-1.88,2.32-4.79,3.75-7.95,4.09-20.65,2.21-41.09,7.06-61.22,12.16-1.69.43-3.39.83-5.1,1.22-8.58,4.57-16.23,10.12-23.53,16.26-.33,2.88-1.91,5.38-4.19,7.14-.37.34-.76.67-1.18.96-1.14.81-2.77,4.64-3.65,5.98-2.21,3.37-4.59,6.63-7.11,9.77-4.42,5.49-9.78,10.87-15.94,14.25-.5.28-1.02.54-1.54.79-1.2,4.06-2.16,8.2-4.16,12.03-3.08,5.92-8.3,9.39-14.12,12-7.56,3.38-15.68,7.26-24.15,6.97-8.87-.3-16.46-5.51-22.99-11.26-3.29-2.89-5.79-6.66-9.23-9.37-3.04-2.39-6.61-4.14-10-5.92-7.12-3.75-14.65-7.21-21.2-11.97-2.64-1.92-4.81-4.51-7.43-6.4-2.7-1.95-6.32-1.03-9.49-1.43-4.21-.53-7.49-2.28-9.26-6.4-.05-.11-.08-.22-.13-.34-3.02.93-6.04,1.92-9.05,2.94-1.39.48-2.8.88-4.2,1.28-3.79,4.48-7.5,9.04-11.1,13.68-2.93,3.78-8.28,3.79-12.18,1.56-4.84,6.46-10.34,13.1-17.01,17.1-4.93,8.53-9.9,17.04-14.59,25.71-4.97,9.18-9.14,18.76-15.01,27.4-5.73,8.44-11.94,16.54-17.66,24.98-2.45,3.61-5.08,7.44-6.3,11.7-1.21,4.26-1.84,8.39-3.86,12.39-2.05,4.06-7.28,5.96-11.44,4.78-4.53-1.28-7.02-5.37-7.43-9.96-1.02,2.84-2.24,5.58-3.95,8.07-3.74,5.44-8.85,9.32-13.38,13.99-4.41,4.55-8.73,9.5-11.88,15.07-3.21,5.68-5.2,11.77-9.38,16.87-4.23,5.15-9.98,8.31-15.66,11.45.28,5.03.06,10.15-2.29,13.89-1.5,2.39-3.74,3.89-6.16,4.55-1.77.64-3.78.78-5.92.24-5.06-1.3-9.93-3.11-14.68-5.34-1.82-.85-3.06-1.51-4.74-2.11-.66-.23-1.33-.41-2-.6-5.15,1.7-10.92-2.22-12.28-7.32-1.2-4.47.63-8.43,3.85-10.94-.79-.46-1.57-.93-2.36-1.39-5.26-3.09-10.4-6.28-15.32-9.77-.78-.23-1.53-.55-2.18-.99-2.03-1.37-3.73-3.05-5.36-4.78-2.99-2.48-5.88-5.13-8.62-8.01-4.82-5.06-2.63-12.8,1.98-16.32-1.08-2.91-2-5.88-2.75-8.93-1.72-6.9-2.75-13.97-3.72-21.02-.29-2.11-.74-4.27-1.1-6.44-1.06-1.24-2.11-2.48-3.14-3.73-2.03-2.46-3.08-5.53-2.85-8.51-1.46-1.32-2.62-3.07-3.38-5.05-4.64-12.11-5.2-25.13-10.96-36.94-5.54-11.37-12.94-21.38-22.23-29.79-4.12-3.73-3.69-10.93,0-14.71.22-.22.44-.43.67-.62-4.75-5.52-9.74-10.83-15.16-15.73-4.12-3.73-3.68-10.93,0-14.71,1.24-1.27,2.68-2.11,4.19-2.55-8.2-9.82-16.88-19.17-26.77-27.36-4.28-3.54-3.55-11.07,0-14.71.21-.22.43-.42.66-.61-2.08-2.98-3.96-6.17-5.99-9.35-2.79-2.06-5.43-4.32-7.69-7.03-1.26-1.51-2.13-3.12-2.97-4.78-1.2-1.21-2.4-2.42-3.6-3.63-5-5.04-10.29-9.79-15.31-14.82-2.66-1.17-5.37-2.23-8.14-3.12-1.64-.53-2.2-2.02-2-3.38-.68-.64-1.33-1.3-1.94-2.01-1.76-.17-3.51-.47-5.25-.79-1.61-.3-2.94-.47-4.26-1.3-.31-.11-.6-.28-.86-.48-.13-.01-.26-.03-.38-.06-1.06-.27-2.12-.54-3.2-.77-1.12-.24-1.83-1.22-2.05-2.31-1.87-.19-3.74-.43-5.62-.81-.06-.01-.12-.04-.18-.05-2.82.95-5.84,1-9.01-.21-2.08-.79-3.59-1.88-5.91-1.98-1.88-.08-3.68.38-5.51.7-3.18.55-5.97.86-9.05-.37-.71-.28-1.23-.74-1.58-1.27-6.02,1.97-12.19,3.37-18.35,4.87-3.93.95-7.76,2.14-11.65,3.22-1.37.38-2.87.93-4.34,1.01-9.34,5.56-19.29,9.95-28.7,15.41-5.42,4.87-11.22,9.62-16.53,14.8.96,1.07,1.27,2.75-.03,4.07-.9.92-1.89,1.71-2.93,2.41.25.88.06,1.86-.85,2.67-2.81,2.52-5.76,5.32-8.49,8.32.3.01.6.05.93.12,2.38.55,4.16,2.72,3.23,5.26-.73,1.98-2.79,3.42-4.69,3.98-1.43.42-2.97.72-4.52.94-.05.12-.1.23-.16.35-2.18,3.9-4.2,7.89-6.26,11.86,0,.04,0,.09,0,.13-.17,1.77-.41,3.53-.66,5.3-.23,1.63-.28,3.34-.77,4.91-.38,1.21-1.25,1.84-2.2,2.02-.12.41-.26.81-.4,1.22,0,1.45-.05,2.96-.25,4.42,3.79.12,7.58.37,11.36.57.74.04.75,1.23,0,1.19-3.86-.2-7.71-.45-11.58-.57-.13.59-.28,1.17-.48,1.73.28.24.57.49.86.72.25.2.2.64,0,.84-.24.25-.57.2-.82,0-.18-.14-.35-.29-.52-.44-.04.07-.06.15-.1.23-.69,1.29-1.84,1.65-2.91,1.42-.18,1.38-.46,2.76-1.29,3.82-.06.08-.14.12-.23.15,0,.07,0,.15,0,.22.02,1.87.13,3.8-.46,5.6-.04.11-.11.19-.18.26v540.78h875.08V129.53c-3.18.5-6.69-.39-8.78-2.86Z"/>
      <g>
        <path class="cls-6" d="M91.64,6.73C24.07,31.08,0,105.05,0,166.16v503.33h24.89V166.16c0-52.13,19.67-114.93,74.86-134.83C181.15,1.99,229.05,106.71,258.01,188.03l.08.21c2.73,7.27,5.41,14.55,8.09,21.83,8.67,23.51,17.64,47.84,28.06,71.28,1.04,2.35,2.12,4.82,3.22,7.38,10.7,24.69,25.36,58.52,53.5,69.25,33.68,12.86,60.79-23.49,75.47-43.18,22.15-29.69,42.04-57.39,60.79-84.71l.22-.33c20.25-31.47,70.53-92.57,96.7-80.61l2.26,1.04h.68c2.61,1.35,12.41,7.35,34.69,30.88,12.25,12.94,25.23,19.3,38.89,18.81,27.25-.94,50.05-28.41,76.45-60.21,3.06-3.68,6.16-7.42,9.33-11.19l.26-.33c.12-.14,11.48-14.45,29.25-24.69,22.27-12.84,43.66-12.9,63.56-.15,2.26,1.68,25.18,19.48,27.58,47.48v518.68h24.89V150.26l-.04-1.04c-3.2-41.84-37.14-66.48-38.58-67.52l-.47-.31c-53.14-34.38-105.09,4.55-125.28,30.09-3.16,3.77-6.26,7.49-9.29,11.15-21.65,26.07-42.09,50.7-58.48,51.26-6.42.22-13.09-3.42-20.39-11.11-28.92-30.56-41.41-36.84-47.01-38.17-51.79-20.92-117.59,78.1-125.56,90.48-18.53,26.97-38.19,54.36-60.2,83.87-10.68,14.31-30.55,40.94-47.19,34.59-18.32-7-29.99-33.93-39.36-55.56-1.14-2.64-2.25-5.18-3.33-7.61-10.07-22.65-18.88-46.56-27.39-69.68-2.7-7.29-5.39-14.59-8.12-21.86-13.91-39.03-33.53-88.56-62.2-125.68C191.77,17.79,161.25,0,128.02,0c-11.79,0-23.93,2.24-36.38,6.73"/>
        <g class="cls-8">
          <path class="cls-2" d="M0,60.64v13.53c1.47-3.6,3.16-7.04,4.9-10.2-1.88-.44-3.66-1.64-4.9-3.33Z"/>
          <path class="cls-3" d="M5.4,107.92c-.02.4-.03.79-.03,1.18,0,1.38.2,2.71.48,4.06.04.2.08.41.11.62,0-.59,0-1.19-.02-1.78-.02-1.56.08-3.1.35-4.64-.25.25-.55.43-.9.56Z"/>
          <path class="cls-5" d="M889.72,106.69c.76,4.58-.68,9.26-4.69,11.72-3.68,2.25-9.36,1.85-12.28-1.66-7.42-8.91-14.2-18.41-21.91-27.05-3.7-4.14-7.61-8.22-11.96-11.62-1.62-1.27-4.74-3.93-7.67-5.57-1.88,2.36-4.79,3.82-7.95,4.16-20.65,2.25-41.09,7.19-61.22,12.37-1.69.44-3.39.85-5.1,1.24-8.58,4.65-16.23,10.3-23.53,16.54-.33,2.93-1.91,5.47-4.19,7.26-.37.35-.76.68-1.18.98-1.14.82-2.77,4.72-3.65,6.08-2.21,3.43-4.59,6.75-7.11,9.94-4.42,5.59-9.78,11.06-15.94,14.5-.5.28-1.02.55-1.54.8-1.2,4.13-2.16,8.34-4.16,12.24-3.08,6.02-8.3,9.56-14.12,12.21-7.56,3.44-15.68,7.39-24.15,7.09-8.87-.31-16.46-5.61-22.99-11.46-3.29-2.94-5.79-6.78-9.23-9.53-3.04-2.43-6.61-4.21-10-6.03-7.12-3.81-14.65-7.34-21.2-12.18-2.64-1.95-4.81-4.59-7.43-6.51-2.7-1.98-6.32-1.05-9.49-1.45-4.21-.54-7.49-2.32-9.26-6.51-.05-.11-.08-.23-.13-.34-3.02.95-6.04,1.95-9.05,2.99-1.39.48-2.8.9-4.2,1.3-3.79,4.56-7.5,9.19-11.1,13.92-2.93,3.85-8.28,3.86-12.18,1.58-4.84,6.58-10.34,13.33-17.01,17.4-4.93,8.68-9.9,17.33-14.59,26.16-4.97,9.34-9.14,19.09-15.01,27.88-5.73,8.59-11.94,16.83-17.66,25.42-2.45,3.68-5.08,7.57-6.3,11.91-1.21,4.33-1.84,8.54-3.86,12.61-2.05,4.13-7.28,6.06-11.44,4.86-4.53-1.3-7.02-5.47-7.43-10.13-1.02,2.89-2.24,5.68-3.95,8.22-3.74,5.54-8.85,9.48-13.38,14.23-4.41,4.63-8.73,9.66-11.88,15.34-3.21,5.78-5.2,11.98-9.38,17.17-4.23,5.24-9.98,8.45-15.66,11.65.28,5.11.06,10.33-2.29,14.13-1.5,2.43-3.74,3.96-6.16,4.62-1.77.65-3.78.8-5.92.24-5.06-1.32-9.93-3.17-14.68-5.43-1.82-.87-3.06-1.54-4.74-2.14-.66-.24-1.33-.41-2-.61-5.15,1.73-10.92-2.25-12.28-7.44-1.2-4.55.63-8.58,3.85-11.14-.79-.47-1.57-.94-2.36-1.41-5.26-3.15-10.4-6.39-15.32-9.94-.78-.23-1.53-.56-2.18-1.01-2.03-1.4-3.73-3.1-5.36-4.86-2.99-2.53-5.88-5.22-8.62-8.15-4.82-5.15-2.63-13.03,1.98-16.61-1.08-2.96-2-5.98-2.75-9.09-1.72-7.03-2.75-14.21-3.72-21.38-.29-2.15-.74-4.35-1.1-6.55-1.06-1.26-2.11-2.52-3.14-3.8-2.03-2.51-3.08-5.63-2.85-8.66-1.46-1.35-2.62-3.12-3.38-5.14-4.64-12.32-5.2-25.57-10.96-37.59-5.54-11.57-12.94-21.75-22.23-30.31-4.12-3.8-3.69-11.12,0-14.97.22-.23.44-.43.67-.63-4.75-5.62-9.74-11.02-15.16-16.01-4.12-3.79-3.68-11.12,0-14.97,1.24-1.29,2.68-2.14,4.19-2.6-8.2-9.99-16.88-19.51-26.77-27.84-4.28-3.61-3.55-11.26,0-14.97.21-.22.43-.42.66-.62-2.08-3.04-3.96-6.28-5.99-9.51-2.79-2.1-5.43-4.39-7.69-7.15-1.26-1.54-2.13-3.17-2.97-4.86-1.2-1.23-2.4-2.46-3.6-3.69-5-5.13-10.29-9.97-15.31-15.08-2.66-1.19-5.37-2.26-8.14-3.18-1.64-.54-2.2-2.06-2-3.44-.68-.65-1.33-1.33-1.94-2.05-1.76-.18-3.51-.47-5.25-.8-1.61-.3-2.94-.48-4.26-1.33-.31-.11-.6-.28-.86-.49-.13-.01-.26-.03-.38-.06-1.06-.28-2.12-.55-3.2-.78-1.12-.24-1.83-1.24-2.05-2.35-1.87-.19-3.74-.43-5.62-.83-.06-.01-.12-.04-.18-.06-2.82.96-5.84,1.02-9.01-.21-2.08-.81-3.59-1.92-5.91-2.02-1.88-.08-3.68.38-5.51.71-3.18.56-5.97.88-9.05-.37-.71-.29-1.23-.75-1.58-1.3-6.02,2-12.19,3.43-18.35,4.95-3.93.97-7.76,2.18-11.65,3.27-1.37.38-2.87.94-4.34,1.03-9.34,5.66-19.29,10.12-28.7,15.68-5.42,4.95-11.22,9.79-16.53,15.06.96,1.09,1.27,2.8-.03,4.14-.9.93-1.89,1.74-2.93,2.45.25.89.06,1.89-.85,2.72-2.81,2.56-5.76,5.41-8.49,8.46.3.01.6.05.93.12,2.38.56,4.16,2.77,3.23,5.36-.73,2.01-2.79,3.48-4.69,4.05-1.43.43-2.97.73-4.52.95-.05.12-.1.24-.16.36-2.18,3.97-4.2,8.03-6.26,12.07,0,.04,0,.09,0,.13-.17,1.8-.41,3.6-.66,5.39-.23,1.66-.28,3.4-.77,5-.38,1.24-1.25,1.87-2.2,2.05-.12.42-.26.83-.4,1.24,0,1.47-.05,3.01-.25,4.5,3.79.12,7.58.38,11.36.58.74.04.75,1.25,0,1.21-3.86-.2-7.71-.46-11.58-.58-.13.6-.28,1.19-.48,1.76.28.25.57.5.86.74.25.2.2.65,0,.86-.24.25-.57.2-.82,0-.18-.14-.35-.3-.52-.45-.04.07-.06.16-.1.23-.69,1.31-1.84,1.68-2.91,1.45-.18,1.4-.46,2.81-1.29,3.89-.06.08-.14.12-.23.15,0,.08,0,.15,0,.22.02,1.9.13,3.87-.46,5.7-.19.58-.93.57-1.12,0-.46-1.38-.58-2.94-.88-4.37-.29-1.39-.46-2.77-.44-4.2,0-.28.01-.55.02-.83-.07-.01-.14,0-.2-.02-.09.14-.24.24-.45.24-.44,0-.61-.41-.54-.75-.61-.5-1.03-1.28-.99-2.08.07-1.32.35-2.55.73-3.79-.94.06-1.89-.03-2.78-.29v568.13h892V107.49c-.77-.24-1.52-.52-2.28-.8Z"/>
        </g>
      </g>
      <g>
        <path class="cls-4" d="M218.95,568.4h-27.59l-12.61-24.63-30.15-59.12-30.15,59.12-12.61,24.63h-27.59l12.61-24.63,57.74-113.32,57.74,113.32,12.61,24.63Z"/>
        <g>
          <path class="cls-4" d="M325.97,468.68v-.79c0-6.9-5.71-12.61-12.61-12.61h-55.97c-6.9,0-12.61,5.72-12.61,12.61v.79c0,6.89,5.72,12.61,12.61,12.61h49.66c12.81,0,24.24,5.52,32.12,14.19.59.59.99,1.18,1.58,1.78,6.11,7.49,9.85,17.14,9.85,27.59,0,24.04-19.51,43.55-43.55,43.55h-43.16c-24.04,0-43.55-19.51-43.55-43.55h24.63c0,10.44,8.48,18.92,18.92,18.92h43.16c10.44,0,19.12-8.47,19.12-18.92s-8.67-18.92-19.12-18.92h-49.66c-10.05,0-19.12-3.95-25.82-10.45-1.77-1.78-3.35-3.74-4.73-5.91-4.14-5.91-6.5-13.21-6.5-21.09v-.79c0-20.5,16.55-37.25,37.05-37.25h55.97c20.5,0,37.25,16.75,37.25,37.25v.79l-24.63.2Z"/>
          <path class="cls-4" d="M508.28,430.45v137.96h-24.63v-63.26h-88.69v63.26h-24.63v-137.96h24.63v50.06h88.69v-50.06h24.63Z"/>
          <path class="cls-4" d="M661.02,499.43c0,38.04-30.94,68.98-68.97,68.98s-68.98-30.94-68.98-68.98,30.94-68.98,68.98-68.98,68.97,30.95,68.97,68.98ZM636.38,499.43c0-24.44-19.9-44.34-44.34-44.34s-44.34,19.9-44.34,44.34,19.91,44.34,44.34,44.34,44.34-19.9,44.34-44.34Z"/>
          <path class="cls-4" d="M753.46,485.83l59.71,82.57h-30.35l-47.69-65.82-34.88,31.73v34.1h-24.63v-137.96h24.63v70.55l20.3-18.53,18.33-16.75,38.43-35.28h36.46l-60.3,55.38Z"/>
        </g>
      </g>
      <g>
        <path class="cls-4" d="M81.71,596.36h7.78l12.65,19.66,12.65-19.66h7.78v41.58h-7.31v-29.82l-13.13,19.6h-.24l-13.01-19.49v29.7h-7.19v-41.58Z"/>
        <path class="cls-4" d="M192.99,596.36h7.31v41.58h-7.31v-41.58Z"/>
        <path class="cls-4" d="M270.79,596.36h6.77l22.27,28.75v-28.75h7.19v41.58h-6.12l-22.93-29.58v29.58h-7.19v-41.58Z"/>
        <path class="cls-4" d="M377.02,596.36h30.83v6.53h-23.52v10.81h20.85v6.53h-20.85v11.16h23.82v6.54h-31.12v-41.58Z"/>
        <path class="cls-4" d="M476.19,596.36h18.53c5.23,0,9.33,1.54,12,4.16,2.2,2.26,3.44,5.35,3.44,8.97v.12c0,6.83-4.1,10.93-9.92,12.59l11.23,15.74h-8.61l-10.22-14.49h-9.15v14.49h-7.3v-41.58ZM494.19,616.97c5.23,0,8.55-2.73,8.55-6.95v-.12c0-4.45-3.21-6.89-8.61-6.89h-10.63v13.96h10.69Z"/>
        <path class="cls-4" d="M593.24,596.06h6.77l18.3,41.88h-7.72l-4.22-10.04h-19.66l-4.28,10.04h-7.48l18.29-41.88ZM603.7,621.43l-7.19-16.63-7.13,16.63h14.31Z"/>
        <path class="cls-4" d="M684.75,596.36h7.3v34.92h21.86v6.65h-29.16v-41.58Z"/>
        <path class="cls-4" d="M778.1,631.88l4.39-5.23c3.98,3.45,7.96,5.41,13.13,5.41,4.52,0,7.37-2.08,7.37-5.23v-.12c0-2.97-1.66-4.57-9.39-6.35-8.85-2.14-13.84-4.75-13.84-12.41v-.12c0-7.12,5.94-12.05,14.2-12.05,6.06,0,10.87,1.84,15.09,5.22l-3.92,5.53c-3.74-2.79-7.48-4.28-11.29-4.28-4.28,0-6.77,2.2-6.77,4.93v.12c0,3.21,1.9,4.63,9.86,6.53,8.79,2.14,13.37,5.29,13.37,12.18v.12c0,7.78-6.12,12.42-14.85,12.42-6.35,0-12.36-2.2-17.34-6.65Z"/>
      </g>
    </g>
  </g>
</svg>