<svg width="101" height="99" viewBox="0 0 101 99" fill="none" xmlns="http://www.w3.org/2000/svg">
<g clip-path="url(#clip0_55_200)">
<path d="M47.727 0.87915C40.1655 0.87915 33.8549 6.13856 32.4039 13.1246H0.819458V19.2473H32.4039C33.8549 26.2333 40.1593 31.4927 47.727 31.4927C55.2948 31.4927 61.5991 26.2333 63.0501 19.2473H100.889V13.1246H63.0501C61.5991 6.13856 55.2885 0.87915 47.727 0.87915Z" fill="white"/>
<path d="M78.9987 37.6155C71.4372 37.6155 65.1266 42.8749 63.6756 49.8609H0.819458V55.9836H63.6756C65.1266 62.9696 71.431 68.229 78.9987 68.229C86.5665 68.229 92.8708 62.9696 94.3218 55.9836H100.889V49.8609H94.3218C92.8708 42.8749 86.5602 37.6155 78.9987 37.6155Z" fill="white"/>
<path d="M35.2183 68.229C27.6568 68.229 21.3462 73.4884 19.8952 80.4744H0.819458V86.5971H19.8952C21.3462 93.5831 27.6506 98.8425 35.2183 98.8425C42.7861 98.8425 49.0905 93.5831 50.5415 86.5971H100.889V80.4744H50.5415C49.0905 73.4884 42.7798 68.229 35.2183 68.229Z" fill="white"/>
</g>
<defs>
<clipPath id="clip0_55_200">
<rect width="100.069" height="97.9633" fill="white" transform="translate(0.819458 0.87915)"/>
</clipPath>
</defs>
</svg>
