<svg width="150" height="110" viewBox="0 0 150 110" fill="none" xmlns="http://www.w3.org/2000/svg">
<path d="M149.203 57.0625L130.453 29.5625C130.028 28.932 129.451 28.4138 128.772 28.054C128.094 27.6942 127.335 27.5039 126.562 27.5H89.0625C87.8193 27.5 86.627 27.9829 85.7479 28.8424C84.8689 29.702 84.375 30.8678 84.375 32.0833V87.0833C84.375 88.2989 84.8689 89.4647 85.7479 90.3242C86.627 91.1838 87.8193 91.6667 89.0625 91.6667H98.4375C98.4433 88.4468 99.3164 85.2852 100.969 82.5H93.75V36.6667H124.031L140.625 60.9583V82.5H133.406C135.059 85.2852 135.932 88.4468 135.938 91.6667H145.312C146.556 91.6667 147.748 91.1838 148.627 90.3242C149.506 89.4647 150 88.2989 150 87.0833V59.5833C149.993 58.6848 149.716 57.8082 149.203 57.0625Z" fill="white"/>
<path d="M89.0625 0H4.6875C3.4443 0 2.25201 0.482886 1.37294 1.34243C0.49386 2.20197 0 3.36776 0 4.58333L0 87.0833C0 88.2989 0.49386 89.4647 1.37294 90.3242C2.25201 91.1838 3.4443 91.6667 4.6875 91.6667H14.0625C14.0683 88.4468 14.9414 85.2852 16.5937 82.5H9.375V9.16667H84.375V82.5H49.0312C50.6836 85.2852 51.5567 88.4468 51.5625 91.6667H89.0625C90.3057 91.6667 91.498 91.1838 92.3771 90.3242C93.2561 89.4647 93.75 88.2989 93.75 87.0833V4.58333C93.75 3.36776 93.2561 2.20197 92.3771 1.34243C91.498 0.482886 90.3057 0 89.0625 0Z" fill="white"/>
<path d="M32.8125 110C29.1041 110 25.479 108.925 22.3956 106.91C19.3121 104.896 16.9089 102.032 15.4898 98.6825C14.0706 95.3325 13.6993 91.6463 14.4228 88.0899C15.1463 84.5336 16.932 81.2669 19.5543 78.703C22.1765 76.139 25.5174 74.3929 29.1546 73.6855C32.7917 72.9781 36.5617 73.3412 39.9878 74.7288C43.4139 76.1164 46.3423 78.4662 48.4026 81.4811C50.4628 84.496 51.5625 88.0406 51.5625 91.6666C51.5625 96.5289 49.5871 101.192 46.0708 104.63C42.5545 108.068 37.7853 110 32.8125 110Z" fill="white"/>
<path d="M117 110C113.242 110 109.569 108.915 106.444 106.882C103.32 104.849 100.884 101.96 99.4462 98.5797C98.0082 95.1993 97.6319 91.4796 98.365 87.8909C99.0982 84.3023 100.908 81.0059 103.565 78.4186C106.222 75.8313 109.608 74.0694 113.293 73.3556C116.979 72.6417 120.799 73.0081 124.271 74.4083C127.743 75.8085 130.71 78.1797 132.798 81.222C134.886 84.2643 136 87.8411 136 91.5001C136 96.4066 133.998 101.112 130.435 104.582C126.872 108.051 122.039 110 117 110Z" fill="white"/>
<rect x="18" y="21" width="57" height="29" rx="2" fill="white"/>
<path d="M99 45C99 44.4477 99.4477 44 100 44H121.928C122.269 44 122.587 44.1737 122.771 44.4608L133.015 60.4608C133.441 61.1264 132.963 62 132.172 62H100C99.4477 62 99 61.5523 99 61V45Z" fill="white"/>
</svg>
