<svg width="117" height="99" viewBox="0 0 117 99" fill="none" xmlns="http://www.w3.org/2000/svg">
<g clip-path="url(#clip0_55_205)">
<path fill-rule="evenodd" clip-rule="evenodd" d="M77.7856 96.2537C77.7856 97.2937 76.9234 98.1377 75.8612 98.1377H72.0123C70.9501 98.1377 70.0879 97.2937 70.0879 96.2537C70.0879 95.2138 70.9501 94.3698 72.0123 94.3698H75.8612C76.9234 94.3698 77.7856 95.2138 77.7856 96.2537ZM116.274 96.2537C116.274 97.2937 115.412 98.1377 114.349 98.1377H83.5588C82.4965 98.1377 81.6344 97.2937 81.6344 96.2537C81.6344 95.2138 82.4965 94.3698 83.5588 94.3698H114.349C115.412 94.3698 116.274 95.2138 116.274 96.2537ZM62.3903 96.2537C62.3903 97.2937 61.5281 98.1377 60.4659 98.1377H41.2217C40.1595 98.1377 39.2973 97.2937 39.2973 96.2537C39.2973 95.2138 40.1595 94.3698 41.2217 94.3698H60.4659C61.5281 94.3698 62.3903 95.2138 62.3903 96.2537ZM31.5997 96.2537C31.5997 97.2937 30.7375 98.1377 29.6753 98.1377H2.73349C1.67122 98.1377 0.809082 97.2937 0.809082 96.2537C0.809082 95.2138 1.67122 94.3698 2.73349 94.3698H29.6753C30.7375 94.3698 31.5997 95.2138 31.5997 96.2537ZM4.65791 58.5755C4.65791 57.5356 5.52004 56.6916 6.58232 56.6916H12.0477L11.2336 51.3168C11.0777 50.2882 11.8032 49.3293 12.854 49.1767C13.9124 49.0317 14.8862 49.7343 15.042 50.763L15.9407 56.6916H29.6753C30.7375 56.6916 31.5997 57.5356 31.5997 58.5755C31.5997 59.6155 30.7375 60.4594 29.6753 60.4594H6.58232C5.52004 60.4594 4.65791 59.6155 4.65791 58.5755ZM6.58232 41.6203H9.58248L8.76845 36.2455C8.61257 35.2169 9.33808 34.258 10.3888 34.1054C11.4472 33.9622 12.421 34.6631 12.5749 35.6917L13.4756 41.6203H29.6753C30.7375 41.6203 31.5997 42.4643 31.5997 43.5043C31.5997 44.5442 30.7375 45.3882 29.6753 45.3882H6.58232C5.52004 45.3882 4.65791 44.5442 4.65791 43.5043C4.65791 42.4643 5.52004 41.6203 6.58232 41.6203ZM29.6753 79.2986C28.6149 79.2986 27.7509 78.4527 27.7509 77.4146C27.7509 76.3766 28.6149 75.5307 29.6753 75.5307C30.7356 75.5307 31.5997 76.3766 31.5997 77.4146C31.5997 78.4527 30.7356 79.2986 29.6753 79.2986ZM29.6753 71.7629C26.4923 71.7629 23.902 74.2987 23.902 77.4146C23.902 80.5306 26.4923 83.0664 29.6753 83.0664C32.8582 83.0664 35.4485 80.5306 35.4485 77.4146C35.4485 74.2987 32.8582 71.7629 29.6753 71.7629ZM95.1053 79.2986C94.0449 79.2986 93.1809 78.4527 93.1809 77.4146C93.1809 76.3766 94.0449 75.5307 95.1053 75.5307C96.1656 75.5307 97.0297 76.3766 97.0297 77.4146C97.0297 78.4527 96.1656 79.2986 95.1053 79.2986ZM95.1053 71.7629C91.9223 71.7629 89.3321 74.2987 89.3321 77.4146C89.3321 80.5306 91.9223 83.0664 95.1053 83.0664C98.2883 83.0664 100.879 80.5306 100.879 77.4146C100.879 74.2987 98.2883 71.7629 95.1053 71.7629ZM95.1053 86.8342C89.7997 86.8342 85.4832 82.6086 85.4832 77.4146C85.4832 72.2207 89.7997 67.9951 95.1053 67.9951C100.411 67.9951 104.727 72.2207 104.727 77.4146C104.727 82.6086 100.411 86.8342 95.1053 86.8342ZM113.786 47.8241L108.511 42.6603L106.652 20.8973C106.652 15.7034 102.335 11.4778 97.0297 11.4778H83.5588C82.4965 11.4778 81.6344 12.3218 81.6344 13.3617C81.6344 14.4016 82.4965 15.2456 83.5588 15.2456H97.0297C100.159 15.2456 102.803 17.8341 102.809 21.0537L104.56 41.6203H98.219L100.676 36.8107C101.152 35.8801 100.765 34.7497 99.8143 34.2825C98.8617 33.8172 97.709 34.1959 97.2318 35.1265L93.916 41.6203H83.5588C82.4965 41.6203 81.6344 42.4643 81.6344 43.5043C81.6344 44.5442 82.4965 45.3882 83.5588 45.3882H105.855L111.064 50.4879C112.161 51.5617 112.421 54.0315 112.425 54.8077V75.5307H108.422C107.485 69.1499 101.879 64.2273 95.1053 64.2273C87.6771 64.2273 81.6344 70.1427 81.6344 77.4146C81.6344 84.6865 87.6771 90.602 95.1053 90.602C101.879 90.602 107.485 85.6794 108.422 79.2986H114.349C115.412 79.2986 116.274 78.4546 116.274 77.4146V54.8077C116.274 54.3424 116.205 50.1903 113.786 47.8241ZM29.6753 86.8342C24.3697 86.8342 20.0532 82.6086 20.0532 77.4146C20.0532 72.2207 24.3697 67.9951 29.6753 67.9951C34.9809 67.9951 39.2973 72.2207 39.2973 77.4146C39.2973 82.6086 34.9809 86.8342 29.6753 86.8342ZM75.8612 0.174316H14.28C8.97436 0.174316 4.65791 4.39993 4.65791 9.59387C4.65791 9.68806 4.6656 9.78038 4.67908 9.87269L7.23469 26.5491H2.73349C1.67122 26.5491 0.809082 27.3931 0.809082 28.433C0.809082 29.4729 1.67122 30.3169 2.73349 30.3169H29.6753C30.7375 30.3169 31.5997 29.4729 31.5997 28.433C31.5997 27.3931 30.7375 26.5491 29.6753 26.5491H11.1259L8.50866 9.46388C8.57986 6.40818 11.1413 3.94214 14.28 3.94214H73.9368V75.5307H42.9922C42.055 69.1499 36.4492 64.2273 29.6753 64.2273C22.247 64.2273 16.2044 70.1427 16.2044 77.4146C16.2044 84.6865 22.247 90.602 29.6753 90.602C36.4492 90.602 42.055 85.6794 42.9922 79.2986H75.8612C76.9234 79.2986 77.7856 78.4546 77.7856 77.4146V2.05823C77.7856 1.01831 76.9234 0.174316 75.8612 0.174316Z" fill="white"/>
</g>
<defs>
<clipPath id="clip0_55_205">
<rect width="115.465" height="97.9633" fill="white" transform="translate(0.809082 0.174316)"/>
</clipPath>
</defs>
</svg>
