<svg width="150" height="120" viewBox="0 0 150 120" fill="none" xmlns="http://www.w3.org/2000/svg">
<path d="M133.498 87.0066H128.998V81.008H139.499C140.328 81.008 140.999 80.3373 140.999 79.5083V61.5122C140.999 60.6832 140.328 60.0126 139.499 60.0126H107.995V46.5185C107.995 44.515 107.216 42.6317 105.798 41.2139C104.38 39.7991 102.499 39.0202 100.497 39.0202H100.491L75.8059 39.0349C75.7564 39.0349 75.7153 39.0652 75.6667 39.07C70.561 33.4918 45.3429 5.92035 43.7104 3.94198C40.42 -0.0504439 37.2585 -0.0240497 32.9277 0.0347374C31.7411 0.0494341 30.4198 0.0641302 28.9196 0.00264373C26.8655 -0.053144 25.8019 0.784571 25.2012 1.51401C23.879 3.12196 23.954 5.50974 24.1292 6.85254C22.5672 11.6557 11.8964 46.047 9.41723 55.1449L9.44933 55.1536C9.23721 55.7886 9.10219 56.4551 9.07429 57.1539C5.35054 58.1362 0 61.1997 0 67.7722C0 74.1839 0 84.9158 14.0144 88.0411C15.7519 88.4277 17.4366 88.6182 19.0541 88.6182C22.7487 88.6182 26.092 87.6194 28.8989 85.6482C32.9043 82.8364 35.506 78.1793 36.2269 72.5348C36.2828 72.1014 36.145 71.662 35.8489 71.3399C35.5558 71.0148 35.1309 70.839 34.6974 70.845C34.1918 70.845 23.6491 71.0157 20.9854 62.9993C22.0211 62.1313 22.8021 60.9922 23.23 59.6796L23.2612 59.694L37.4544 28.8035L60.411 65.1366C60.1581 65.8871 59.9892 66.6765 59.9892 67.5115V79.5089C59.9892 80.3379 60.6601 81.0086 61.4894 81.0086H71.9906V87.0072H70.4905C61.3928 87.0072 53.9885 94.409 53.9885 103.504C53.9885 112.598 61.3928 120 70.4905 120H133.498C142.596 120 150 112.598 150 103.504C150 94.409 142.596 87.0066 133.498 87.0066ZM32.9716 73.8026C32.1159 77.8475 30.0942 81.1429 27.1761 83.1933C23.8475 85.5277 19.5287 86.1956 14.6649 85.1116C3.87947 82.7068 3.00036 75.8353 3.00036 67.7719C3.00036 62.7111 7.34668 60.7882 9.57505 60.1331C10.6501 62.8179 13.2676 64.7254 16.3319 64.7254C17.0384 64.7254 17.7081 64.5926 18.3547 64.4039C20.9131 71.162 28.1197 73.4607 32.9716 73.8026ZM22.6395 53.8627C21.3842 51.6615 19.0421 50.1564 16.3319 50.1564C15.448 50.1564 14.6109 50.3385 13.8263 50.6279C17.2119 39.0742 23.5567 18.708 26.047 10.7484L35.5435 25.7784L22.6395 53.8627ZM36.1009 12.0813C34.6869 12.0813 33.5407 10.9355 33.5407 9.52195C33.5407 8.10836 34.6872 6.96262 36.1009 6.96262C37.5147 6.96262 38.6611 8.10866 38.6611 9.52195C38.6611 10.9352 37.515 12.0813 36.1009 12.0813ZM76.6235 42.0342L100.492 42.0195H100.498C101.696 42.0195 102.827 42.488 103.677 43.3377C104.527 44.1874 104.995 45.3179 104.995 46.5185V60.0126H67.7322C68.8667 56.7031 71.5214 49.9873 76.6235 42.0342ZM133.499 117H70.4908C63.0457 117 56.9891 110.946 56.9891 103.503C56.9891 96.0605 63.0457 90.006 70.4908 90.006H133.498C140.943 90.006 147 96.0605 147 103.503C147 110.946 140.944 117 133.499 117ZM79.4921 103.503C79.4921 108.473 75.4624 112.501 70.4911 112.501C65.5198 112.501 61.49 108.473 61.49 103.503C61.49 98.5334 65.5198 94.505 70.4911 94.505C75.4624 94.505 79.4921 98.5334 79.4921 103.503ZM110.996 103.503C110.996 108.473 106.966 112.501 101.995 112.501C97.0235 112.501 92.9938 108.473 92.9938 103.503C92.9938 98.5334 97.0235 94.505 101.995 94.505C106.966 94.505 110.996 98.5334 110.996 103.503ZM142.5 103.503C142.5 108.473 138.47 112.501 133.499 112.501C128.527 112.501 124.498 108.473 124.498 103.503C124.498 98.5334 128.527 94.505 133.499 94.505C138.47 94.505 142.5 98.5334 142.5 103.503Z" fill="white"/>
</svg>
