<svg width="201" height="174" viewBox="0 0 201 174" fill="none" xmlns="http://www.w3.org/2000/svg">
<circle cx="79.5" cy="17.5" r="17.5" fill="white"/>
<path fill-rule="evenodd" clip-rule="evenodd" d="M21.0137 48.2378C20.5132 48.4712 20.2966 49.0662 20.53 49.5667L22.6431 54.0983C22.8765 54.5988 23.4715 54.8154 23.9721 54.582L124.666 7.62778C125.166 7.39438 125.383 6.7994 125.149 6.29886L123.036 1.76732C122.803 1.26678 122.208 1.05022 121.707 1.28363L21.0137 48.2378ZM19.5 48L24 57L22 58L37.5 94.5L27 80.5L15.5 61.5H13.5L10 52.5L11.5 51.5L4.5 32.5L0 14L8.5 31L17 48H19.5Z" fill="white"/>
<path d="M64.4999 53.5C69.2241 42.3727 73.3593 38.5733 84.4999 38C92.1498 36.904 96.7115 36.7129 103 33.5L108.5 24.5C108.696 18.4674 108.294 15.4596 107 10.5C107.072 6.82874 108.225 5.44207 112 4C117.825 5.43526 119.345 6.88963 119.5 10.5C121.615 17.8988 121.59 22.1727 119.5 30C114.283 42.2895 93.9999 56.5 93.9999 56.5C93.9999 56.5 92.4236 75.3212 95.4999 91C116.826 105.325 123.879 116.523 125.5 143.5L117.5 167C115.236 170.752 111.301 171.652 101.5 172C98.5318 170.91 97.7926 168.571 97.4999 162.5C104.965 151.972 106.181 147.875 106 142C106.158 124.189 102.458 119.175 92.9999 114C92.9999 114 95.9997 132.5 88.4999 146.5C81 160.5 82.5 164 73.9999 169C65.4997 174 63.4476 174.891 58.9999 171C55.7903 168.192 55.9999 160.5 55.9999 160.5C60.5896 157.429 63.2605 155.253 70.4999 140C74.8064 126.819 75.1973 119.497 73.9999 106.5C62.6381 92.954 61.2789 80.6816 64.4999 53.5Z" fill="white"/>
<path d="M79.0002 21.0001C79.3722 18.1766 80.2995 17.0817 82.5002 15.5001C85.4331 14.1864 87.2013 13.8683 91.0002 15.5001C91.0002 15.5001 103.93 31.0232 101 41.5001C98.1588 51.6617 80.0002 58.5001 80.0002 58.5001C71.0004 57 71.5 50 75.0002 45.5001C75.0002 45.5001 85.6239 42.5972 87.5002 37.0001C89.7491 30.2916 78.6283 23.8236 79.0002 21.0001Z" fill="white"/>
<path d="M197 15L200.5 8V171.5H129L150.5 120.5L167.5 102L172 77.5L184 57.5V27.5L197 15Z" fill="white"/>
</svg>
