<svg width="98" height="96" viewBox="0 0 98 96" fill="none" xmlns="http://www.w3.org/2000/svg">
<path d="M47.9478 57.1822C47.2089 56.1224 46.8709 54.843 46.9922 53.565C47.1134 52.287 47.6863 51.0905 48.6119 50.1824L51.5626 47.2913C52.489 46.3837 53.71 45.8219 55.0143 45.7032C56.3186 45.5845 57.6242 45.9162 58.7053 46.6411L61.7287 48.6679C61.7629 48.5176 61.8104 48.3707 61.8706 48.2285C62.2736 47.4017 64.1725 43.2543 64.5044 42.7237C65.0051 41.922 65.7074 41.2597 66.544 40.8C67.3806 40.3403 68.3235 40.0986 69.2826 40.0981H73.4545C73.7557 40.1003 74.0561 40.1264 74.353 40.1761C74.3918 39.9839 74.4119 39.7884 74.4128 39.5924V33.9251C74.4125 33.2048 74.1554 32.5072 73.6859 31.9529C73.2164 31.3986 72.5641 31.0225 71.8417 30.8896L65.14 29.6574C64.6473 29.571 64.1863 29.3596 63.803 29.0442C63.4197 28.7287 63.1276 28.3203 62.9556 27.8597C62.6392 26.9851 62.2771 26.1271 61.8706 25.289C61.6616 24.8439 61.5749 24.3529 61.6191 23.8648C61.6632 23.3767 61.8368 22.9084 62.1225 22.5063L65.9692 16.9938C66.3835 16.3989 66.573 15.681 66.505 14.9639C66.4371 14.2468 66.1159 13.5754 65.5969 13.0655L61.5075 9.05869C60.9875 8.54956 60.3024 8.23439 59.5705 8.16763C58.8387 8.10086 58.106 8.2867 57.499 8.69303L51.874 12.4643C51.4638 12.7446 50.9857 12.9147 50.4875 12.9577C49.9893 13.0007 49.4883 12.9151 49.0344 12.7093C48.1788 12.311 47.3026 11.9566 46.4094 11.6476C45.9395 11.4782 45.5231 11.1912 45.2016 10.8152C44.88 10.4392 44.6645 9.98723 44.5764 9.50428L43.319 2.93813C43.1841 2.23009 42.8008 1.59058 42.2354 1.13041C41.6699 0.670234 40.9581 0.418373 40.2231 0.418457H34.44C33.705 0.418789 32.9933 0.67069 32.4277 1.13064C31.8622 1.59058 31.4783 2.22969 31.3425 2.93752L30.0851 9.50428C29.9969 9.98723 29.7812 10.4391 29.4595 10.8151C29.1378 11.191 28.7213 11.4778 28.2514 11.6471C27.3587 11.9557 26.4831 12.3101 25.6284 12.7089C25.1741 12.9142 24.673 12.9996 24.1746 12.9567C23.6763 12.9137 23.198 12.7438 22.7873 12.4639L17.1623 8.69257C16.5552 8.2866 15.8226 8.10099 15.0908 8.16774C14.359 8.2345 13.6739 8.54943 13.1537 9.05823L9.06607 13.0655C8.54683 13.5752 8.22538 14.2465 8.15715 14.9637C8.08892 15.6808 8.27819 16.3988 8.69232 16.9938L12.5406 22.5063C12.8264 22.9086 12.9998 23.3771 13.0437 23.8654C13.0875 24.3537 13.0003 24.8448 12.7906 25.2898C12.3835 26.1278 12.0214 26.986 11.7058 27.8611C11.5335 28.3215 11.2411 28.7296 10.8577 29.0448C10.4743 29.3599 10.0134 29.5712 9.52076 29.6574L2.82076 30.8896C2.09827 31.0224 1.44586 31.3985 0.976347 31.9528C0.506832 32.5071 0.249734 33.2047 0.249512 33.9251V39.5924C0.249728 40.3128 0.50682 41.0105 0.976333 41.5648C1.44585 42.1192 2.09826 42.4953 2.82076 42.6281L9.51935 43.8596C10.0125 43.9459 10.474 44.1574 10.8576 44.473C11.2413 44.7887 11.5338 45.1974 11.7059 45.6585C12.0218 46.5329 12.3839 47.3907 12.7908 48.2282C13.0004 48.6733 13.0876 49.1643 13.0438 49.6527C12.9999 50.141 12.8265 50.6096 12.5408 51.0119L8.69248 56.5244C8.27794 57.1191 8.08841 57.8371 8.15665 58.5542C8.2249 59.2713 8.54662 59.9425 9.06623 60.4519L13.154 64.4595C13.6741 64.9686 14.3593 65.2838 15.0912 65.3504C15.8231 65.417 16.5558 65.2309 17.1626 64.8244L22.7876 61.0538C23.1986 60.7744 23.6768 60.6049 24.175 60.5619C24.6733 60.5189 25.1743 60.604 25.6287 60.8088C26.4833 61.2081 27.3588 61.5628 28.2517 61.8714C28.7217 62.0406 29.1383 62.3274 29.4601 62.7033C29.7819 63.0793 29.9976 63.5312 30.0859 64.0142L31.3433 70.5811C31.4791 71.2889 31.863 71.928 32.4286 72.3879C32.9941 72.8478 33.7058 73.0997 34.4408 73.1H40.2239C40.638 73.0979 41.0476 73.0151 41.4289 72.8565C41.3302 72.4575 41.2778 72.0488 41.2726 71.6383V67.5498C41.273 66.6287 41.509 65.7224 41.9592 64.9138C42.4094 64.1052 43.0593 63.4201 43.8495 62.9213C45.9452 61.9918 48.104 61.2052 50.3103 60.5672L47.9478 57.1822ZM37.3311 48.4081C34.98 48.4082 32.6817 47.725 30.7268 46.4449C28.772 45.1649 27.2483 43.3455 26.3486 41.2168C25.4489 39.0881 25.2135 36.7458 25.6721 34.486C26.1308 32.2262 27.263 30.1505 28.9255 28.5212C30.5879 26.892 32.7061 25.7825 35.012 25.3331C37.3179 24.8836 39.708 25.1143 41.8801 25.9961C44.0522 26.8779 45.9087 28.371 47.2149 30.2868C48.521 32.2026 49.2182 34.4549 49.2181 36.759C49.218 39.8485 47.9656 42.8115 45.7363 44.9961C43.5071 47.1806 40.4836 48.4081 37.3311 48.4081Z" fill="white"/>
<path d="M96.1644 65.9012L91.3297 65.0131C90.8768 64.9331 90.4533 64.7381 90.1015 64.4475C89.7496 64.1569 89.4818 63.7809 89.3247 63.357C89.1042 62.7439 88.8509 62.1426 88.5656 61.5556C88.3716 61.1474 88.2902 60.6965 88.3295 60.2478C88.3688 59.7991 88.5274 59.3683 88.7895 58.9985L91.5658 55.0213C91.7909 54.6987 91.894 54.3091 91.8571 53.9199C91.8201 53.5307 91.6456 53.1664 91.3636 52.89L88.4133 49.9988C88.1313 49.7224 87.7595 49.5513 87.3624 49.5152C86.9653 49.479 86.5677 49.58 86.2386 49.8007L82.1801 52.5211C81.8027 52.7781 81.3632 52.9336 80.9053 52.9721C80.4475 53.0106 79.9873 52.9307 79.5708 52.7405C78.9718 52.4614 78.3583 52.2131 77.7328 51.9968C77.3002 51.8429 76.9165 51.5804 76.6199 51.2356C76.3234 50.8907 76.1244 50.4756 76.043 50.0318L75.1358 45.2936C75.0622 44.9095 74.8539 44.5626 74.547 44.3129C74.2401 44.0633 73.8538 43.9266 73.455 43.9265H69.2826C68.8838 43.9266 68.4975 44.0633 68.1906 44.3129C67.8837 44.5626 67.6755 44.9095 67.6019 45.2936L66.6947 50.0318C66.6132 50.4756 66.4143 50.8906 66.1178 51.2354C65.8213 51.5803 65.4376 51.8428 65.0051 51.9967C64.3796 52.2131 63.766 52.4614 63.1669 52.7405C62.7503 52.9307 62.2902 53.0106 61.8323 52.972C61.3744 52.9335 60.9349 52.7781 60.5575 52.5211L56.4994 49.8007C56.1701 49.58 55.7726 49.479 55.3754 49.5152C54.9782 49.5513 54.6064 49.7224 54.3244 49.9988L51.3742 52.8895C51.0922 53.166 50.9176 53.5303 50.8807 53.9195C50.8438 54.3087 50.9468 54.6983 51.172 55.0209L53.9483 58.9978C54.2104 59.3677 54.369 59.7985 54.4083 60.2472C54.4476 60.6959 54.3662 61.1468 54.1722 61.555C53.887 62.142 53.6336 62.7433 53.4131 63.3564C53.256 63.7803 52.9881 64.1564 52.6361 64.447C52.2842 64.7376 51.8606 64.9326 51.4076 65.0124L46.573 65.9006C46.1809 65.9727 45.8269 66.1768 45.5721 66.4777C45.3173 66.7785 45.1779 67.1571 45.1778 67.548V71.6365C45.1778 72.0274 45.3173 72.406 45.572 72.7069C45.8268 73.0077 46.1809 73.2118 46.573 73.2838L51.4076 74.1719C51.8605 74.2519 52.284 74.4469 52.6359 74.7375C52.9877 75.0282 53.2556 75.4042 53.4126 75.8281C53.6331 76.4412 53.8865 77.0424 54.1717 77.6293C54.3658 78.0376 54.4472 78.4885 54.4079 78.9372C54.3686 79.3859 54.21 79.8167 53.9478 80.1865L51.1715 84.1636C50.9464 84.4863 50.8433 84.8759 50.8803 85.2651C50.9172 85.6543 51.0917 86.0186 51.3737 86.295L54.324 89.1863C54.6061 89.4627 54.9779 89.6338 55.3751 89.67C55.7722 89.7062 56.1698 89.6052 56.499 89.3844L60.5572 86.664C60.9346 86.407 61.3741 86.2515 61.832 86.213C62.2898 86.1745 62.75 86.2543 63.1665 86.4444C63.7656 86.7237 64.3792 86.972 65.0048 87.1883C65.4373 87.3423 65.821 87.6048 66.1175 87.9496C66.414 88.2945 66.6129 88.7096 66.6944 89.1534L67.6016 93.8914C67.6751 94.2755 67.8833 94.6224 68.1903 94.872C68.4972 95.1217 68.8835 95.2583 69.2823 95.2583H73.4542C73.853 95.2583 74.2393 95.1217 74.5462 94.8721C74.8532 94.6225 75.0614 94.2757 75.135 93.8915L76.0422 89.1532C76.1237 88.7094 76.3226 88.2944 76.6191 87.9496C76.9156 87.6048 77.2992 87.3423 77.7317 87.1883C78.3573 86.9721 78.9709 86.7238 79.57 86.4444C79.9865 86.2543 80.4467 86.1745 80.9046 86.213C81.3624 86.2515 81.802 86.407 82.1794 86.664L86.2383 89.3853C86.5675 89.606 86.9651 89.707 87.3623 89.6708C87.7594 89.6347 88.1312 89.4636 88.4133 89.1872L91.3636 86.2959C91.6456 86.0195 91.8202 85.6552 91.8571 85.2661C91.894 84.8769 91.791 84.4873 91.5658 84.1647L88.7895 80.1874C88.5274 79.8175 88.3688 79.3868 88.3296 78.9381C88.2903 78.4894 88.3718 78.0384 88.5659 77.6302C88.8509 77.0433 89.1042 76.4421 89.3247 75.829C89.4818 75.4053 89.7497 75.0294 90.1015 74.7389C90.4533 74.4483 90.8767 74.2534 91.3295 74.1735L96.1642 73.2853C96.5563 73.2133 96.9104 73.0093 97.1652 72.7084C97.42 72.4076 97.5594 72.029 97.5594 71.638V67.5496C97.5596 67.1585 97.4203 66.7796 97.1655 66.4786C96.9108 66.1775 96.5566 65.9733 96.1644 65.9012ZM71.3689 79.1059C69.449 79.1059 67.5723 78.5479 65.976 77.5026C64.3797 76.4573 63.1356 74.9716 62.4009 73.2334C61.6662 71.4951 61.474 69.5824 61.8485 67.7371C62.2231 65.8918 63.1476 64.1968 64.5051 62.8664C65.8627 61.536 67.5923 60.63 69.4753 60.2629C71.3582 59.8959 73.31 60.0842 75.0837 60.8042C76.8574 61.5242 78.3735 62.7435 79.4401 64.3078C80.5067 65.8722 81.076 67.7114 81.0761 69.5929C81.0761 70.8421 80.825 72.0792 80.3372 73.2334C79.8493 74.3875 79.1343 75.4362 78.2329 76.3196C77.3315 77.203 76.2614 77.9037 75.0837 78.3818C73.9059 78.8598 72.6437 79.1059 71.3689 79.1059Z" fill="white"/>
</svg>
