<!DOCTYPE svg PUBLIC "-//W3C//DTD SVG 1.1//EN" "http://www.w3.org/Graphics/SVG/1.1/DTD/svg11.dtd">
<!-- Uploaded to: SVG Repo, www.svgrepo.com, Transformed by: SVG Repo Mixer Tools -->
<svg fill="#BF0000" height="800px" width="800px" version="1.1" id="Capa_1" xmlns="http://www.w3.org/2000/svg" xmlns:xlink="http://www.w3.org/1999/xlink" viewBox="0 0 489.336 489.336" xml:space="preserve">
<g id="SVGRepo_bgCarrier" stroke-width="0"/>
<g id="SVGRepo_tracerCarrier" stroke-linecap="round" stroke-linejoin="round"/>
<g id="SVGRepo_iconCarrier"> <g> <path d="M188.833,76.26c-62.799,0-113.889,51.09-113.889,113.889c0,62.798,51.09,113.889,113.889,113.89 c62.798,0,113.888-51.091,113.888-113.89S251.632,76.26,188.833,76.26z M188.833,295.539 c-58.112-0.001-105.389-47.278-105.389-105.39c0-58.112,47.277-105.389,105.389-105.389c58.111,0,105.388,47.277,105.388,105.389 S246.945,295.539,188.833,295.539z"/> <path d="M188.833,104.021c2.347,0,4.25-1.903,4.25-4.25s-1.903-4.25-4.25-4.25c-0.001,0,0.001,0-0.001,0 c-25.275,0-49.041,9.844-66.913,27.716c-17.873,17.873-27.716,41.637-27.716,66.913c0,2.347,1.903,4.25,4.25,4.25 c2.347,0,4.25-1.903,4.25-4.25c0-23.005,8.959-44.634,25.227-60.902C144.198,112.979,165.827,104.02,188.833,104.021z"/> <path d="M188.833,122.169c-37.484,0.001-67.98,30.496-67.98,67.98c0,37.484,30.496,67.98,67.98,67.98 c37.484,0,67.979-30.496,67.979-67.98S226.317,122.169,188.833,122.169z M188.833,249.629c-32.798,0-59.48-26.683-59.48-59.48 c0-32.797,26.683-59.48,59.48-59.48c32.797,0,59.48,26.683,59.48,59.48C248.313,222.947,221.63,249.629,188.833,249.629z"/> <path d="M349.239,285.478L334.061,270.3c5.979-10.814,10.726-22.269,14.145-34.135h21.459c4.412,0,8.002-3.596,8.002-8.017V152.15 c0-4.42-3.589-8.017-8.001-8.017h-21.46c-3.42-11.869-8.167-23.324-14.145-34.135l15.178-15.178 c1.514-1.514,2.345-3.528,2.341-5.67c-0.004-2.137-0.839-4.146-2.351-5.656l-53.739-53.742c-1.512-1.51-3.52-2.346-5.656-2.35 c-0.006,0-0.011,0-0.017,0c-2.137,0-4.145,0.832-5.654,2.341l-15.178,15.179c-10.812-5.979-22.266-10.726-34.135-14.146V9.318 c0-4.412-3.596-8.002-8.017-8.002h-75.998c-4.42,0-8.017,3.589-8.017,8.002v21.46c-11.87,3.42-23.325,8.167-34.135,14.145 L93.504,29.743c-1.51-1.509-3.517-2.34-5.654-2.34c-0.005,0-0.01,0-0.014,0c-2.137,0.003-4.147,0.838-5.658,2.351L28.441,83.492 c-1.513,1.512-2.35,3.521-2.354,5.658c-0.004,2.143,0.827,4.156,2.341,5.67l15.178,15.179 c-5.977,10.809-10.723,22.264-14.144,34.134H8.002C3.59,144.133,0,147.73,0,152.151v75.997c0,4.421,3.59,8.017,8.002,8.017h21.459 c3.421,11.871,8.168,23.325,14.145,34.135L28.43,285.476c-1.515,1.514-2.347,3.528-2.342,5.672c0.004,2.138,0.84,4.147,2.352,5.657 l53.738,53.739c1.512,1.512,3.521,2.347,5.657,2.351c0.006,0,0.011,0,0.017,0c2.137,0,4.145-0.831,5.652-2.34l15.179-15.178 c10.812,5.978,22.267,10.724,34.135,14.145v21.458c0,4.413,3.597,8.002,8.017,8.002l75.998-0.001c4.42,0,8.017-3.589,8.017-8.001 v-21.459c11.869-3.421,23.325-8.168,34.135-14.146l15.177,15.179c1.515,1.515,3.492,2.332,5.672,2.341 c2.136-0.004,4.146-0.84,5.656-2.352l53.74-53.739C352.354,293.678,352.358,288.597,349.239,285.478z M289.821,344.192 L272.71,327.08c-1.362-1.362-3.47-1.639-5.136-0.673c-11.941,6.917-24.756,12.227-38.089,15.782 c-0.024,0.006-0.049,0.013-0.072,0.02c-2.006,0.573-3.264,2.497-3.063,4.505v23.767l-75.032,0.001v-9.268h35.544 c2.347,0,4.25-1.903,4.25-4.25c0-2.347-1.903-4.25-4.25-4.25h-35.544v-6.062c0.173-2.022-1.124-3.927-3.14-4.465 c-13.314-3.551-26.113-8.852-38.044-15.756c-0.03-0.018-0.061-0.036-0.092-0.053c-0.06-0.034-0.132-0.072-0.193-0.103 c-1.798-0.898-3.937-0.406-5.172,1.087l-16.83,16.829l-53.055-53.056l16.851-16.85c1.528-1.284,1.982-3.509,0.978-5.316 c-0.012-0.021-0.024-0.043-0.038-0.066c-6.918-11.942-12.229-24.759-15.787-38.096c-0.536-2.008-2.419-3.301-4.441-3.142H8.5 v-75.032h24.192c1.925,0,3.61-1.294,4.106-3.154c3.556-13.328,8.864-26.136,15.775-38.07c0.965-1.666,0.689-3.773-0.672-5.135 l-17.11-17.111l53.054-53.057l17.112,17.112c1.362,1.361,3.469,1.637,5.136,0.672c11.939-6.916,24.752-12.225,38.084-15.78 c2.006-0.535,3.299-2.423,3.14-4.435V9.816h75.032v6.309h-39.488c-2.347,0-4.25,1.903-4.25,4.25s1.903,4.25,4.25,4.25h39.488v9.084 c-0.135,1.932,1.077,3.769,3,4.361c0.072,0.022,0.143,0.042,0.215,0.06c13.303,3.555,26.09,8.857,38.009,15.761 c1.666,0.965,3.774,0.689,5.135-0.672l17.112-17.113l53.055,53.057l-17.111,17.111c-1.361,1.362-1.638,3.469-0.672,5.135 c6.913,11.936,12.221,24.745,15.776,38.07c0.497,1.86,2.181,3.154,4.106,3.154h24.192v75.032h-23.813 c-2.023-0.179-3.942,1.119-4.481,3.139c-3.554,13.328-8.863,26.142-15.78,38.086c-0.965,1.667-0.689,3.773,0.672,5.135 l17.112,17.111L289.821,344.192z"/> <path d="M188.833,55.38c-74.312,0-134.77,60.457-134.77,134.77c0,74.311,60.458,134.769,134.77,134.77 c74.312,0,134.77-60.457,134.77-134.77C323.603,115.837,263.146,55.38,188.833,55.38z M188.833,316.419 c-69.626-0.001-126.27-56.645-126.27-126.27c0-69.626,56.645-126.27,126.27-126.27c69.626,0,126.27,56.644,126.27,126.27 S258.459,316.419,188.833,316.419z"/> <path d="M485.523,404.684l-7.93-3.131c0.368-4.891,0.288-9.806-0.239-14.682l7.818-3.39c3.051-1.323,4.456-4.884,3.132-7.939 l-14.35-33.094c-1.325-3.051-4.883-4.462-7.935-3.138l-7.819,3.391c-3.197-3.714-6.73-7.132-10.553-10.207l3.133-7.93 c1.221-3.089-0.302-6.6-3.399-7.828l-33.549-13.253c-3.098-1.221-6.608,0.301-7.829,3.392l-3.133,7.929 c-4.89-0.367-9.805-0.288-14.681,0.239l-3.392-7.822c-1.325-3.051-4.889-4.455-7.938-3.127l-33.09,14.35 c-1.477,0.64-2.618,1.816-3.212,3.31c-0.597,1.502-0.572,3.144,0.07,4.624l3.391,7.819c-3.716,3.199-7.134,6.732-10.208,10.554 l-7.928-3.133c-1.503-0.593-3.144-0.564-4.624,0.081c-1.476,0.643-2.614,1.823-3.204,3.319L304.8,378.566 c-1.22,3.097,0.302,6.608,3.392,7.829l7.93,3.132c-0.368,4.887-0.288,9.803,0.239,14.68l-7.819,3.391 c-3.051,1.322-4.456,4.883-3.132,7.939l14.351,33.092c1.324,3.054,4.884,4.462,7.934,3.14l7.82-3.391 c3.199,3.716,6.732,7.134,10.553,10.208l-3.129,7.923c-0.596,1.502-0.569,3.147,0.078,4.63c0.643,1.473,1.819,2.61,3.318,3.204 l33.542,13.25c0.721,0.286,1.475,0.428,2.228,0.428c0.814,0,1.628-0.167,2.397-0.501c1.479-0.641,2.619-1.818,3.21-3.316 l3.132-7.929c4.892,0.368,9.807,0.288,14.681-0.24l3.392,7.82c1.323,3.049,4.881,4.454,7.938,3.13l33.091-14.35 c3.054-1.324,4.464-4.883,3.142-7.935c0,0,0-0.001,0-0.001l-3.391-7.819c3.716-3.198,7.134-6.731,10.207-10.553l7.928,3.132 c1.501,0.593,3.144,0.565,4.626-0.081c1.474-0.643,2.611-1.821,3.203-3.318l13.253-33.546 C490.136,409.42,488.617,405.907,485.523,404.684z M468.66,440.649l-8.605-3.399c-1.79-0.708-3.834-0.122-4.979,1.426 c-3.775,5.106-8.212,9.693-13.188,13.634c-1.509,1.195-2.026,3.256-1.261,5.022l3.68,8.486l-28.574,12.391l-3.575-8.243 c-0.681-1.887-2.604-3.058-4.625-2.756c-6.283,0.939-12.667,1.044-18.976,0.311c-1.914-0.219-3.736,0.869-4.443,2.66l-3.399,8.604 l-28.966-11.442l3.399-8.605c0.708-1.791,0.123-3.834-1.426-4.979c-5.108-3.776-9.697-8.216-13.64-13.196 c-0.022-0.028-0.045-0.056-0.067-0.082c-1.301-1.561-3.487-1.955-5.223-1.052l-8.212,3.561l-12.391-28.574l8.247-3.577 c1.78-0.645,2.938-2.412,2.786-4.327c-0.01-0.128-0.025-0.255-0.046-0.381c-0.929-6.262-1.029-12.62-0.297-18.898 c0.238-2.04-1.013-3.918-2.905-4.532l-8.362-3.304l11.443-28.966l8.376,3.31c1.685,0.783,3.727,0.377,4.979-1.053 c0.097-0.11,0.188-0.224,0.272-0.343c3.765-5.08,8.185-9.645,13.138-13.57c0.133-0.105,0.259-0.217,0.378-0.335 c1.324-1.324,1.598-3.315,0.792-4.916l-3.582-8.261l28.574-12.391l3.679,8.485c0.766,1.766,2.625,2.799,4.527,2.512 c6.281-0.938,12.662-1.042,18.967-0.308c1.916,0.219,3.736-0.869,4.444-2.66l3.4-8.606l28.966,11.443l-3.4,8.606 c-0.707,1.791-0.122,3.834,1.426,4.979c5.111,3.779,9.7,8.218,13.639,13.194c1.258,1.589,3.431,2.042,5.193,1.18l8.312-3.605 l12.39,28.574l-8.231,3.569c-1.901,0.682-3.069,2.617-2.768,4.629c0.94,6.282,1.044,12.667,0.31,18.976 c-0.223,1.913,0.869,3.737,2.661,4.445l8.605,3.398L468.66,440.649z"/> <path d="M419.023,339.433c-14.986-5.921-31.381-5.65-46.165,0.76c-14.784,6.411-26.186,18.194-32.107,33.181 c-5.92,14.986-5.65,31.382,0.76,46.166c9.855,22.726,32.105,36.326,55.43,36.324c7.997,0,16.125-1.6,23.916-4.978 c30.517-13.233,44.579-48.828,31.346-79.346C445.793,356.756,434.009,345.353,419.023,339.433z M417.476,443.086 c-26.217,11.371-56.797-0.711-68.166-26.928c-5.508-12.701-5.74-26.786-0.654-39.661c5.086-12.875,14.882-22.998,27.584-28.506 c6.695-2.903,13.674-4.277,20.545-4.277c20.036,0,39.154,11.684,47.62,31.206C455.774,401.139,443.694,431.718,417.476,443.086z"/> <path d="M381.306,359.675c-2.153,0.934-3.142,3.436-2.209,5.59c0.935,2.153,3.438,3.142,5.59,2.208 c15.473-6.71,33.524,0.419,40.236,15.895c0.695,1.603,2.259,2.56,3.901,2.56c0.564,0,1.138-0.113,1.689-0.352 c2.153-0.933,3.142-3.436,2.208-5.59C424.146,360.212,401.083,351.101,381.306,359.675z"/> <path d="M409.028,423.605c-7.497,3.251-15.811,3.388-23.41,0.386c-7.6-3.002-13.575-8.784-16.826-16.281 c-0.934-2.154-3.437-3.141-5.59-2.208c-2.153,0.934-3.142,3.436-2.208,5.59c4.154,9.58,11.79,16.968,21.501,20.805 c4.653,1.838,9.515,2.755,14.371,2.755c5.28,0,10.553-1.084,15.543-3.248c2.153-0.934,3.142-3.436,2.208-5.59 C413.684,423.66,411.182,422.672,409.028,423.605z"/> </g> </g>
</svg>