<svg width="101" height="99" viewBox="0 0 101 99" fill="none" xmlns="http://www.w3.org/2000/svg">
<path d="M48.9816 58.1605C48.2422 57.1011 47.904 55.8222 48.0253 54.5446C48.1466 53.2671 48.7199 52.0711 49.6461 51.1633L52.5989 48.2732C53.526 47.366 54.7478 46.8045 56.053 46.6858C57.3582 46.5671 58.6647 46.8987 59.7466 47.6233L62.7721 49.6493C62.8063 49.4992 62.8538 49.3522 62.9141 49.2102C63.3173 48.3836 65.2175 44.2378 65.5496 43.7074C66.0508 42.906 66.7535 42.2439 67.5907 41.7844C68.4279 41.3249 69.3715 41.0833 70.3312 41.0827H74.506C74.8074 41.085 75.108 41.1111 75.4051 41.1608C75.444 40.9686 75.464 40.7732 75.465 40.5773V34.9121C75.4647 34.192 75.2074 33.4947 74.7376 32.9406C74.2678 32.3865 73.615 32.0106 72.8921 31.8777L66.1857 30.6459C65.6927 30.5596 65.2314 30.3483 64.8478 30.033C64.4643 29.7177 64.1719 29.3094 63.9998 28.8489C63.6832 27.9747 63.3208 27.117 62.9141 26.2792C62.7049 25.8342 62.6181 25.3435 62.6624 24.8556C62.7066 24.3677 62.8802 23.8995 63.1661 23.4975L67.0155 17.9871C67.4301 17.3925 67.6197 16.6748 67.5517 15.958C67.4837 15.2411 67.1623 14.57 66.6429 14.0603L62.5507 10.055C62.0304 9.54603 61.3448 9.23098 60.6124 9.16424C59.88 9.0975 59.1468 9.28326 58.5395 9.68944L52.9106 13.4593C52.5 13.7395 52.0216 13.9095 51.5231 13.9525C51.0245 13.9955 50.5232 13.9099 50.0689 13.7043C49.2127 13.306 48.3359 12.9518 47.4421 12.6429C46.9719 12.4735 46.5553 12.1867 46.2335 11.8108C45.9117 11.4349 45.696 10.9832 45.6078 10.5004L44.3496 3.9367C44.2146 3.22892 43.831 2.58966 43.2652 2.12965C42.6994 1.66965 41.987 1.41788 41.2515 1.41797H35.4644C34.7289 1.4183 34.0167 1.67011 33.4508 2.12988C32.8848 2.58966 32.5007 3.22852 32.3647 3.93609L31.1065 10.5004C31.0182 10.9832 30.8024 11.4349 30.4804 11.8107C30.1585 12.1865 29.7417 12.4732 29.2715 12.6424C28.3782 12.9509 27.502 13.3052 26.6467 13.7038C26.1921 13.9091 25.6906 13.9945 25.1919 13.9515C24.6932 13.9085 24.2146 13.7387 23.8036 13.4589L18.1747 9.68898C17.5672 9.28317 16.8341 9.09762 16.1018 9.16435C15.3695 9.23108 14.6839 9.5459 14.1634 10.0545L10.0729 14.0603C9.55327 14.5698 9.23159 15.2409 9.16331 15.9577C9.09504 16.6746 9.28444 17.3923 9.69886 17.9871L13.5498 23.4975C13.8358 23.8997 14.0093 24.3681 14.0532 24.8562C14.0971 25.3443 14.0098 25.8351 13.8 26.28C13.3926 27.1176 13.0302 27.9756 12.7144 28.8503C12.542 29.3105 12.2494 29.7185 11.8657 30.0336C11.4821 30.3486 11.0208 30.5598 10.5279 30.6459L3.82322 31.8777C3.10023 32.0105 2.44736 32.3864 1.97752 32.9405C1.50768 33.4946 1.25041 34.192 1.25018 34.9121V40.5773C1.2504 41.2974 1.50767 41.9949 1.97751 42.549C2.44735 43.1031 3.10022 43.479 3.82322 43.6119L10.5265 44.8428C11.02 44.9291 11.4817 45.1405 11.8657 45.4561C12.2496 45.7716 12.5423 46.1802 12.7145 46.6411C13.0306 47.5152 13.393 48.3726 13.8001 49.2098C14.0099 49.6547 14.0972 50.1456 14.0533 50.6337C14.0095 51.1219 13.8359 51.5903 13.55 51.9925L9.69901 57.5029C9.28418 58.0974 9.09452 58.8151 9.16282 59.5319C9.23111 60.2488 9.55305 60.9198 10.073 61.4289L14.1637 65.435C14.6841 65.944 15.3697 66.259 16.1022 66.3256C16.8346 66.3922 17.5678 66.2062 18.1751 65.7998L23.804 62.0306C24.2152 61.7514 24.6937 61.5819 25.1923 61.5389C25.6909 61.496 26.1923 61.581 26.647 61.7857C27.5022 62.1849 28.3783 62.5394 29.2718 62.8479C29.7421 63.017 30.159 63.3037 30.481 63.6795C30.803 64.0553 31.019 64.5071 31.1073 64.9899L32.3655 71.5544C32.5015 72.2619 32.8856 72.9007 33.4516 73.3605C34.0175 73.8202 34.7298 74.072 35.4652 74.0723H41.2523C41.6668 74.0702 42.0766 73.9875 42.4582 73.829C42.3594 73.4301 42.307 73.0215 42.3018 72.6111V68.5242C42.3021 67.6034 42.5383 66.6974 42.9888 65.8892C43.4393 65.0808 44.0897 64.3961 44.8805 63.8975C46.9776 62.9682 49.1379 62.1819 51.3457 61.5442L48.9816 58.1605ZM38.3575 49.3897C36.0048 49.3897 33.7049 48.7068 31.7487 47.4272C29.7924 46.1476 28.2678 44.3289 27.3674 42.201C26.467 40.0732 26.2315 37.7317 26.6905 35.4728C27.1495 33.2138 28.2824 31.1388 29.946 29.5102C31.6097 27.8816 33.7293 26.7726 36.0368 26.3233C38.3443 25.874 40.7361 26.1046 42.9097 26.986C45.0833 27.8675 46.9411 29.3601 48.2482 31.2752C49.5552 33.1902 50.2528 35.4417 50.2528 37.7449C50.2527 40.8333 48.9994 43.7951 46.7686 45.9789C44.5378 48.1627 41.5123 49.3897 38.3575 49.3897Z" fill="white"/>
<path d="M97.2316 66.8761L92.3936 65.9883C91.9404 65.9084 91.5166 65.7135 91.1645 65.423C90.8124 65.1325 90.5444 64.7566 90.3872 64.3329C90.1666 63.72 89.913 63.1189 89.6276 62.5322C89.4335 62.1241 89.352 61.6733 89.3914 61.2248C89.4307 60.7763 89.5894 60.3457 89.8517 59.976L92.6298 56.0003C92.8552 55.6778 92.9583 55.2884 92.9213 54.8993C92.8844 54.5103 92.7097 54.1461 92.4275 53.8698L89.4752 50.9797C89.193 50.7034 88.821 50.5324 88.4236 50.4962C88.0262 50.46 87.6283 50.561 87.299 50.7817L83.2377 53.5011C82.86 53.7579 82.4202 53.9134 81.962 53.9518C81.5038 53.9903 81.0433 53.9105 80.6265 53.7204C80.0271 53.4413 79.4132 53.1932 78.7873 52.977C78.3544 52.8231 77.9704 52.5607 77.6736 52.216C77.3769 51.8713 77.1778 51.4563 77.0963 51.0126L76.1884 46.2763C76.1148 45.8922 75.9064 45.5455 75.5993 45.2959C75.2921 45.0464 74.9056 44.9098 74.5065 44.9097H70.3312C69.9321 44.9098 69.5456 45.0464 69.2385 45.2959C68.9313 45.5455 68.7229 45.8922 68.6493 46.2763L67.7415 51.0126C67.66 51.4563 67.4609 51.8712 67.1642 52.2159C66.8675 52.5606 66.4836 52.8229 66.0508 52.9768C65.4248 53.1932 64.8108 53.4414 64.2112 53.7204C63.7944 53.9105 63.3339 53.9903 62.8757 53.9518C62.4175 53.9133 61.9777 53.7579 61.6 53.5011L57.5391 50.7817C57.2096 50.561 56.8118 50.4601 56.4143 50.4962C56.0169 50.5324 55.6448 50.7034 55.3626 50.9797L52.4104 53.8693C52.1282 54.1456 51.9535 54.5098 51.9165 54.8989C51.8796 55.2879 51.9827 55.6774 52.208 55.9999L54.9862 59.9754C55.2485 60.3451 55.4073 60.7757 55.4466 61.2242C55.4859 61.6727 55.4044 62.1235 55.2103 62.5316C54.9249 63.1183 54.6713 63.7194 54.4507 64.3323C54.2935 64.756 54.0254 65.132 53.6732 65.4225C53.321 65.713 52.8971 65.9079 52.4438 65.9877L47.6058 66.8755C47.2134 66.9476 46.8592 67.1516 46.6042 67.4524C46.3493 67.7531 46.2097 68.1316 46.2097 68.5224V72.6093C46.2097 73 46.3492 73.3785 46.6042 73.6792C46.8591 73.98 47.2134 74.184 47.6058 74.256L52.4438 75.1438C52.897 75.2237 53.3208 75.4186 53.6729 75.7092C54.025 75.9997 54.2931 76.3756 54.4502 76.7993C54.6708 77.4122 54.9244 78.0132 55.2098 78.5999C55.404 79.0079 55.4855 79.4587 55.4462 79.9073C55.4069 80.3558 55.2481 80.7864 54.9858 81.1561L52.2076 85.1317C51.9822 85.4542 51.8791 85.8437 51.9161 86.2327C51.953 86.6218 52.1277 86.986 52.4099 87.2623L55.3623 90.1525C55.6445 90.4288 56.0165 90.5999 56.414 90.636C56.8115 90.6722 57.2093 90.5712 57.5388 90.3506L61.5997 87.6312C61.9774 87.3743 62.4172 87.2188 62.8754 87.1803C63.3336 87.1418 63.794 87.2216 64.2109 87.4117C64.8104 87.6908 65.4244 87.939 66.0505 88.1553C66.4833 88.3092 66.8672 88.5716 67.1639 88.9163C67.4606 89.261 67.6596 89.676 67.7412 90.1196L68.649 94.8558C68.7226 95.2398 68.931 95.5866 69.2381 95.8361C69.5452 96.0857 69.9318 96.2222 70.3309 96.2223H74.5057C74.9048 96.2222 75.2914 96.0857 75.5985 95.8362C75.9056 95.5867 76.114 95.24 76.1877 94.856L77.0955 90.1194C77.177 89.6758 77.3761 89.2609 77.6728 88.9163C77.9695 88.5716 78.3534 88.3092 78.7862 88.1553C79.4122 87.9391 80.0263 87.6909 80.6257 87.4117C81.0426 87.2216 81.5031 87.1418 81.9612 87.1803C82.4194 87.2188 82.8593 87.3743 83.2369 87.6312L87.2986 90.3515C87.6281 90.5721 88.026 90.673 88.4234 90.6369C88.8208 90.6007 89.1929 90.4297 89.4752 90.1534L92.4275 87.2632C92.7097 86.9869 92.8844 86.6228 92.9214 86.2337C92.9583 85.8447 92.8552 85.4553 92.6298 85.1328L89.8517 81.157C89.5894 80.7873 89.4307 80.3567 89.3914 79.9081C89.3521 79.4596 89.4337 79.0088 89.6279 78.6008C89.9131 78.0141 90.1665 77.4131 90.3872 76.8003C90.5444 76.3767 90.8125 76.0009 91.1645 75.7105C91.5166 75.4201 91.9403 75.2252 92.3934 75.1453L97.2315 74.2575C97.6239 74.1855 97.9782 73.9816 98.2331 73.6808C98.4881 73.3801 98.6276 73.0016 98.6276 72.6108V68.5239C98.6278 68.1329 98.4884 67.7542 98.2335 67.4533C97.9785 67.1524 97.6241 66.9482 97.2316 66.8761ZM72.4189 80.0759C70.4978 80.0759 68.6197 79.5181 67.0223 78.4732C65.4249 77.4283 64.1799 75.9432 63.4447 74.2056C62.7095 72.468 62.5172 70.556 62.892 68.7114C63.2668 66.8667 64.1919 65.1724 65.5504 63.8425C66.9089 62.5126 68.6397 61.6069 70.524 61.24C72.4083 60.873 74.3614 61.0613 76.1363 61.7811C77.9113 62.5008 79.4284 63.7196 80.4957 65.2834C81.5631 66.8472 82.1328 68.6857 82.1329 70.5664C82.1329 71.8152 81.8816 73.0518 81.3934 74.2055C80.9053 75.3593 80.1897 76.4076 79.2877 77.2906C78.3857 78.1737 77.3148 78.8741 76.1363 79.352C74.9578 79.8299 73.6946 80.0759 72.4189 80.0759Z" fill="white"/>
</svg>
