<svg width="108" height="111" viewBox="0 0 108 111" fill="none" xmlns="http://www.w3.org/2000/svg">
<path d="M78.7419 3.54375C77.348 -1.18125 70.652 -1.18125 69.2581 3.54375L68.9206 4.69125C68.7124 5.39863 68.3484 6.05043 67.8554 6.59884C67.3625 7.14725 66.753 7.57838 66.0718 7.86059C65.3905 8.14281 64.6547 8.26896 63.9184 8.22979C63.182 8.19062 62.4637 7.98714 61.8162 7.63425L60.77 7.0605C56.4399 4.70475 51.7047 9.43988 54.0639 13.7666L54.6343 14.8162C56.1395 17.5837 54.7119 21.0296 51.6912 21.9206L50.5437 22.2581C45.8187 23.652 45.8187 30.348 50.5437 31.7419L51.6912 32.0794C52.3986 32.2876 53.0504 32.6516 53.5988 33.1446C54.1473 33.6375 54.5784 34.247 54.8606 34.9282C55.1428 35.6095 55.269 36.3453 55.2298 37.0816C55.1906 37.818 54.9871 38.5363 54.6343 39.1838L54.0605 40.23C51.7048 44.5601 56.4399 49.2952 60.7666 46.9361L61.8162 46.3657C62.4637 46.0129 63.182 45.8094 63.9184 45.7702C64.6547 45.731 65.3905 45.8572 66.0718 46.1394C66.753 46.4216 67.3625 46.8527 67.8554 47.4012C68.3484 47.9496 68.7124 48.6014 68.9206 49.3088L69.2581 50.4562C70.652 55.1812 77.348 55.1812 78.7419 50.4562L79.0794 49.3088C79.2876 48.6014 79.6516 47.9496 80.1446 47.4012C80.6375 46.8527 81.247 46.4216 81.9282 46.1394C82.6095 45.8572 83.3453 45.731 84.0816 45.7702C84.818 45.8094 85.5363 46.0129 86.1838 46.3657L87.23 46.9395C91.5601 49.2952 96.2952 44.5601 93.9361 40.2334L93.3657 39.1838C93.0129 38.5363 92.8094 37.818 92.7702 37.0816C92.731 36.3453 92.8572 35.6095 93.1394 34.9282C93.4216 34.247 93.8527 33.6375 94.4012 33.1446C94.9496 32.6516 95.6014 32.2876 96.3088 32.0794L97.4562 31.7419C102.181 30.348 102.181 23.652 97.4562 22.2581L96.3088 21.9206C95.6014 21.7124 94.9496 21.3484 94.4012 20.8554C93.8527 20.3625 93.4216 19.753 93.1394 19.0718C92.8572 18.3905 92.731 17.6547 92.7702 16.9184C92.8094 16.182 93.0129 15.4637 93.3657 14.8162L93.9395 13.77C96.2952 9.43987 91.5601 4.70475 87.2334 7.06387L86.1838 7.63425C85.5363 7.98714 84.818 8.19062 84.0816 8.22979C83.3453 8.26896 82.6095 8.14281 81.9282 7.86059C81.247 7.57838 80.6375 7.14725 80.1446 6.59884C79.6516 6.05043 79.2876 5.39863 79.0794 4.69125L78.7419 3.54375ZM74 36.8888C71.3773 36.8888 68.8621 35.8469 67.0076 33.9924C65.1531 32.1379 64.1112 29.6227 64.1112 27C64.1112 24.3773 65.1531 21.8621 67.0076 20.0076C68.8621 18.1531 71.3773 17.1112 74 17.1112C76.6218 17.1112 79.1361 18.1527 80.99 20.0066C82.8439 21.8605 83.8854 24.3749 83.8854 26.9966C83.8854 29.6184 82.8439 32.1328 80.99 33.9866C79.1361 35.8405 76.6218 36.882 74 36.882V36.8888Z" fill="white"/>
<path d="M99.4126 82.9092L52.9795 102.586C49.4394 104.068 45.4876 103.985 42.1122 102.339L19.2249 90.8127L16.2611 96.658L39.2307 108.184C41.9475 109.501 44.9113 110.16 47.8751 110.16C50.5096 110.16 53.1441 109.666 55.5317 108.596L101.965 89.0015C104.435 87.9313 106.328 85.9554 107.316 83.4855C108.304 80.9334 108.222 78.2165 107.069 75.7467C104.846 70.9716 99.0009 68.7488 93.9789 70.8893L91.0974 72.1242L77.1016 78.0519L79.6538 84.1442L93.6496 78.2165L96.5311 76.9816C98.26 76.2406 100.318 76.8993 101.059 78.5458C101.471 79.3691 101.471 80.2747 101.141 81.098C100.812 81.9213 100.236 82.5799 99.4126 82.9092Z" fill="white"/>
<path d="M20.2128 78.8934L27.9517 72.4718C32.3974 69.0963 37.8311 67.6144 43.3471 68.273C45.5699 68.52 47.6281 69.0963 49.604 70.0019L70.927 79.4697C71.5033 79.7167 71.9973 80.1283 72.3266 80.7046C72.9029 81.6102 72.9852 82.7628 72.5736 83.8331C72.4089 84.1624 72.2443 84.4094 72.0796 84.6564C71.0917 85.7266 69.6098 86.0559 68.2925 85.4796L51.8269 78.1524L49.11 84.1624L65.5757 91.4896C66.8929 92.0659 68.2925 92.3952 69.6098 92.3952C72.4089 92.3952 75.0434 91.2426 77.0193 89.0198C77.6779 88.2788 78.2542 87.4555 78.6659 86.5499C79.9831 83.5038 79.7361 80.046 78.0072 77.2468C76.937 75.6003 75.4551 74.283 73.7262 73.5421L52.3208 63.992C49.7687 62.8394 46.9695 62.0984 44.1703 61.7691C36.9255 60.9458 29.7629 62.9217 23.9999 67.2851L13.6266 75.7649V95.3407L19.3896 98.2222L20.2128 78.8934Z" fill="white"/>
<rect y="76" width="11" height="19" fill="white"/>
</svg>
