<svg width="101" height="98" viewBox="0 0 101 98" fill="none" xmlns="http://www.w3.org/2000/svg">
<path d="M69.3446 8.77352L57.3636 1.05061C55.7732 0.0254067 53.7402 -0.0141195 52.1111 0.948488L38.8252 8.79885C37.3028 9.69842 36.3688 11.3352 36.3688 13.1035V29.1416C36.3688 30.9099 37.3028 32.5467 38.8252 33.4463L52.1111 41.2967C53.7402 42.2593 55.7732 42.2198 57.3636 41.1945L69.3446 33.4716C70.7728 32.5511 71.6357 30.9682 71.6357 29.2691V12.9761C71.6357 11.2769 70.7728 9.6941 69.3446 8.77352Z" fill="white"/>
<ellipse cx="54.0888" cy="21.2104" rx="10.0763" ry="10.8723" fill="#8B8989"/>
<path fill-rule="evenodd" clip-rule="evenodd" d="M95.9349 46.6617C94.234 45.1931 92.0228 44.6398 89.9097 45.8371C88.7266 46.5075 86.8002 48.0535 84.5165 50.0728C82.2572 52.0705 79.7181 54.4681 77.3325 56.7816C74.9481 59.0938 72.7234 61.316 71.0944 62.9605C70.28 63.7826 69.6149 64.4599 69.1536 64.9316C68.9229 65.1674 68.7432 65.3517 68.6213 65.477L68.4827 65.6197L68.4474 65.656L68.4386 65.6651L68.4365 65.6673L68.436 65.6678C68.4359 65.6679 68.4359 65.6679 68.407 65.6399L68.407 65.64L68.4358 65.668C68.4224 65.6818 68.4087 65.6952 68.3948 65.708C68.1583 66.9939 67.6157 68.3269 66.7122 69.6921C66.1618 70.5237 65.2975 71.1441 64.3224 71.6186C63.3388 72.0972 62.1677 72.4633 60.9086 72.7467C58.3903 73.3134 55.3894 73.577 52.5369 73.6821C49.6763 73.7875 46.9257 73.7347 44.8931 73.656C43.8759 73.6166 43.0364 73.5706 42.4501 73.5343C42.157 73.5162 41.927 73.5006 41.7698 73.4894C41.6911 73.4838 41.6307 73.4793 41.5895 73.4762L41.5425 73.4726L41.5301 73.4716L41.5267 73.4713L41.5258 73.4713C41.5255 73.4712 41.5253 73.4712 41.6046 72.4744L41.5253 73.4712C40.9747 73.4275 40.5639 72.9457 40.6077 72.3951C40.6515 71.8446 41.1333 71.4337 41.6838 71.4775L41.6843 71.4776L41.6867 71.4778L41.6971 71.4786L41.7401 71.4818C41.7613 71.4834 41.7884 71.4855 41.8212 71.4879C41.8477 71.4898 41.878 71.492 41.9118 71.4944C42.0633 71.5052 42.2869 71.5204 42.5735 71.5382C43.1466 71.5736 43.9707 71.6187 44.9705 71.6575C46.9721 71.735 49.6692 71.7864 52.4633 71.6835C55.2655 71.5802 58.126 71.3228 60.4695 70.7955C61.6411 70.5318 62.6509 70.2077 63.4473 69.8202C64.2523 69.4285 64.7672 69.007 65.0444 68.5882C66.5605 66.2975 66.7808 64.297 66.3212 62.573C65.85 60.8058 64.6276 59.1958 63.0192 57.8116L63.0193 57.8117C63.0194 57.8117 63.0189 57.8115 63.0179 57.8108L63.0178 57.8108C63.0015 57.8012 62.8539 57.7137 62.436 57.6182C62.0257 57.5245 61.4705 57.4475 60.7726 57.3907C59.3799 57.2773 57.5244 57.2519 55.3405 57.2906C50.9778 57.3679 45.4097 57.6984 39.8288 58.0516C33.2099 58.4706 26.4292 59.5336 21.326 60.9321C18.7672 61.6333 16.6807 62.4054 15.2556 63.196C14.5413 63.5922 14.0404 63.9675 13.7297 64.3032C13.4188 64.6391 13.3658 64.8588 13.3658 64.9724L13.3658 74.7666L13.3658 78.2181L13.3658 79.2063L13.3658 79.469L13.3658 79.5367V79.5538V79.5582V79.5592V79.5595L12.3658 79.5596L11.3658 79.5595V79.5592V79.5581V79.5538V79.5366L11.3658 79.469L11.3658 79.2063L11.3658 78.2181L11.3658 74.7666L11.3658 64.9724C11.3658 64.178 11.7519 63.4956 12.2619 62.9447C12.772 62.3936 13.4734 61.8975 14.2854 61.4471C15.9127 60.5443 18.1742 59.7221 20.7974 59.0032C26.0581 57.5616 32.9774 56.4813 39.7025 56.0556C45.2763 55.7029 50.8894 55.3692 55.3051 55.2909C57.5104 55.2518 59.4434 55.2758 60.9349 55.3973C61.6791 55.4579 62.3398 55.5447 62.8814 55.6684C63.3828 55.783 63.9342 55.9604 64.3239 56.2957C66.1054 57.8289 67.6414 59.7615 68.2537 62.0578C68.3209 62.31 68.3766 62.5652 68.4202 62.8229C68.7814 62.4555 69.2027 62.0283 69.6735 61.553C71.3086 59.9023 73.5433 57.6702 75.9401 55.3458C78.3357 53.0227 80.8996 50.6013 83.1916 48.5745C85.4593 46.5694 87.5325 44.8853 88.9238 44.097C91.9596 42.3768 95.0812 43.2822 97.242 45.1478C99.3656 46.9814 100.77 49.9108 100.334 52.6274C100.211 53.3989 99.705 54.4866 99.0087 55.7137C98.2875 56.9846 97.2852 58.5332 96.0498 60.2706C93.5777 63.7473 90.1422 68.0222 86.0808 72.4074C77.981 81.1529 67.2839 90.4548 56.685 94.6594C47.6729 98.2345 36.459 97.5877 27.6501 95.9994C23.2261 95.2018 19.3625 94.1581 16.6184 93.2572C15.2489 92.8076 14.1427 92.3884 13.3783 92.0473C13.0023 91.8795 12.6767 91.7164 12.4378 91.5649C12.3264 91.4943 12.1791 91.3925 12.054 91.2606C11.993 91.1963 11.8902 91.0765 11.8174 90.904C11.8027 90.8692 11.7885 90.83 11.776 90.787C11.5273 90.6051 11.3658 90.3111 11.3658 89.9794V79.5596L12.3658 79.5596H13.3658V89.6925C13.4437 89.7555 13.5105 89.829 13.5652 89.9101C13.6913 89.9838 13.8968 90.0885 14.1934 90.2209C14.8736 90.5245 15.9102 90.9196 17.2423 91.357C19.9012 92.2299 23.675 93.2504 28.005 94.0311C36.7039 95.5996 47.4638 96.1658 55.9475 92.8004C66.1254 88.7628 76.5759 79.7266 84.6134 71.0484C88.6206 66.7217 92.0011 62.5133 94.4198 59.1116C95.6299 57.4099 96.5917 55.9205 97.2692 54.7266C97.9716 53.489 98.2994 52.6853 98.3595 52.3106C98.6592 50.4426 97.673 48.1623 95.9349 46.6617ZM4.7697 56.1134C2.32532 56.1134 0.34375 58.0949 0.34375 60.5393V92.9154C0.34375 95.3598 2.32532 97.3414 4.7697 97.3414C7.21408 97.3414 9.19565 95.3598 9.19565 92.9154V60.5393C9.19565 58.0949 7.21408 56.1134 4.7697 56.1134Z" fill="white"/>
</svg>
