<!DOCTYPE svg PUBLIC "-//W3C//DTD SVG 1.1//EN" "http://www.w3.org/Graphics/SVG/1.1/DTD/svg11.dtd">
<!-- Uploaded to: SVG Repo, www.svgrepo.com, Transformed by: SVG Repo Mixer Tools -->
<svg fill="#BF0000" height="800px" width="800px" version="1.1" id="Capa_1" xmlns="http://www.w3.org/2000/svg" xmlns:xlink="http://www.w3.org/1999/xlink" viewBox="0 0 498.5 498.5" xml:space="preserve">
<g id="SVGRepo_bgCarrier" stroke-width="0"/>
<g id="SVGRepo_tracerCarrier" stroke-linecap="round" stroke-linejoin="round"/>
<g id="SVGRepo_iconCarrier"> <g> <path d="M495.845,101.502l-245-99.223c-1.022-0.414-2.168-0.414-3.19,0l-245,99.223C1.05,102.152,0,103.71,0,105.441v386.84 c0,2.348,1.903,4.25,4.25,4.25h490c2.347,0,4.25-1.902,4.25-4.25v-386.84C498.5,103.71,497.45,102.152,495.845,101.502z M156.935,105.818c0.459,0.169,0.949,0.275,1.467,0.275H194.4c2.347,0,4.25-1.902,4.25-4.25c0-2.348-1.903-4.25-4.25-4.25h-17.695 l72.545-30.177l200.593,83.441v22.427c-0.668-0.437-1.463-0.695-2.321-0.695H330.813c-2.347,0-4.25,1.902-4.25,4.25 c0,2.348,1.903,4.25,4.25,4.25h116.709c0.858,0,1.653-0.259,2.321-0.695v22.193H387.81c-2.347,0-4.25,1.902-4.25,4.25 c0,2.348,1.903,4.25,4.25,4.25h62.032v276.943H48.657V150.858L156.935,105.818z M490,488.031h-31.657V148.023 c0-1.717-1.033-3.265-2.618-3.924L250.882,58.891c-1.045-0.436-2.22-0.436-3.265,0L42.775,144.1 c-1.585,0.659-2.618,2.207-2.618,3.924v340.008H8.5V108.306l240.75-97.502L490,108.306V488.031z"/> <path d="M283.623,459.934h127.854c5.082,0,9.215-4.134,9.215-9.215V322.863c0-5.081-4.134-9.215-9.215-9.215H283.623 c-5.081,0-9.215,4.134-9.215,9.215v127.855C274.408,455.8,278.541,459.934,283.623,459.934z M282.908,450.719V351.48l26.256,26.245 v73.708h-25.542C283.228,451.434,282.908,451.113,282.908,450.719z M382.905,451.434H352.11v-30.782L382.905,451.434z M343.61,451.434h-25.946v-65.212l25.946,25.934V451.434z M412.192,322.863v100.529l-25.635-25.623v-75.621h24.92 C411.872,322.148,412.192,322.469,412.192,322.863z M310.902,322.148h32.708v32.692L310.902,322.148z M352.11,322.148h25.947 v67.124l-25.947-25.936V322.148z M283.623,322.148h15.257l113.313,113.263v15.308c0,0.395-0.321,0.715-0.715,0.715h-16.548 L282.908,339.463v-16.6C282.908,322.469,283.228,322.148,283.623,322.148z"/> <path d="M256.528,306.273v161.035c0,5.792,4.712,10.504,10.504,10.504h161.036c5.792,0,10.504-4.712,10.504-10.504V306.273 c0-5.792-4.712-10.504-10.504-10.504H267.032C261.24,295.77,256.528,300.481,256.528,306.273z M430.072,306.273v161.035 c0,1.105-0.899,2.004-2.004,2.004H267.032c-1.105,0-2.004-0.898-2.004-2.004V306.273c0-1.104,0.899-2.004,2.004-2.004h161.036 C429.173,304.27,430.072,305.169,430.072,306.273z"/> <path d="M401.204,448.211c0.83,0.829,1.917,1.244,3.004,1.244c1.088,0,2.176-0.415,3.006-1.245c1.659-1.66,1.659-4.352-0.001-6.011 l-41.599-41.58c-1.659-1.658-4.35-1.658-6.01,0.001c-1.659,1.66-1.659,4.352,0.002,6.011L401.204,448.211z"/> <path d="M87.628,459.934h127.854c5.082,0,9.215-4.134,9.215-9.215V322.863c0-5.081-4.134-9.215-9.215-9.215H87.628 c-5.081,0-9.215,4.134-9.215,9.215v127.855C78.414,455.8,82.547,459.934,87.628,459.934z M182.063,384.31v67.124h-25.947v-41.189 L182.063,384.31z M147.616,451.434h-32.707l32.707-32.692V451.434z M215.483,451.434h-24.92v-75.621l25.635-25.623v100.529 C216.198,451.113,215.877,451.434,215.483,451.434z M216.198,322.863v15.308L102.885,451.434H87.628 c-0.394,0-0.715-0.32-0.715-0.715v-16.6l112.021-111.971h16.548C215.877,322.148,216.198,322.469,216.198,322.863z M147.616,361.427L121.67,387.36v-65.212h25.946V361.427z M156.116,322.148h30.795l-30.795,30.782V322.148z M87.628,322.148h25.541 v73.708l-26.256,26.245v-99.238C86.914,322.469,87.234,322.148,87.628,322.148z"/> <path d="M71.038,477.813h161.036c5.792,0,10.504-4.711,10.504-10.502V306.273c0-5.792-4.712-10.504-10.504-10.504H71.038 c-5.792,0-10.504,4.712-10.504,10.504V467.31C60.534,473.102,65.246,477.813,71.038,477.813z M69.034,306.273 c0-1.104,0.899-2.004,2.004-2.004h161.036c1.105,0,2.004,0.899,2.004,2.004V467.31c0,1.104-0.899,2.002-2.004,2.002H71.038 c-1.105,0-2.004-0.898-2.004-2.002V306.273z"/> <path d="M163.611,366.953c-1.66,1.659-1.661,4.351-0.001,6.011c0.83,0.83,1.918,1.245,3.006,1.245c1.087,0,2.175-0.415,3.004-1.244 l41.599-41.582c1.66-1.659,1.661-4.351,0.001-6.011c-1.66-1.66-4.351-1.659-6.01-0.001L163.611,366.953z"/> <path d="M169.904,268.191h105.753c4.608,0,8.357-3.749,8.357-8.357V154.08c0-4.607-3.749-8.355-8.357-8.355H169.904 c-4.608,0-8.357,3.748-8.357,8.355v105.754C161.547,264.442,165.296,268.191,169.904,268.191z M195.311,259.691l80.202-80.167 v80.167H195.311z M275.514,167.507l-92.226,92.185h-13.241v-12.215l93.293-93.252h12.173V167.507z M251.317,154.225l-81.27,81.234 v-81.234H251.317z"/> <path d="M156.182,282.978h133.198c5.196,0,9.423-4.227,9.423-9.422V140.357c0-5.195-4.227-9.422-9.423-9.422H156.182 c-5.196,0-9.423,4.227-9.423,9.422v133.199C146.758,278.752,150.985,282.978,156.182,282.978z M155.258,140.357 c0-0.509,0.414-0.922,0.923-0.922h133.198c0.509,0,0.923,0.413,0.923,0.922v133.199c0,0.509-0.414,0.922-0.923,0.922H156.182 c-0.509,0-0.923-0.413-0.923-0.922V140.357z"/> </g> </g>
</svg>